<svg id="svg" version="1.1" xmlns="http://www.w3.org/2000/svg" xmlns:xlink="http://www.w3.org/1999/xlink" width="192" height="69" viewBox="0, 0, 400,142.85714285714286"><g id="svgg"><path id="path0" d="M157.500 26.250 C 157.500 26.456,157.196 26.500,155.764 26.500 C 153.890 26.500,153.500 26.575,153.500 26.934 C 153.500 27.105,153.256 27.167,152.583 27.167 C 151.880 27.167,151.667 27.225,151.667 27.417 C 151.667 27.606,151.463 27.667,150.833 27.667 C 150.111 27.667,150.000 27.711,150.000 28.000 C 150.000 28.270,149.889 28.333,149.417 28.333 C 149.009 28.333,148.833 28.409,148.833 28.583 C 148.833 28.752,148.665 28.833,148.318 28.833 C 147.942 28.833,147.778 28.924,147.715 29.167 C 147.654 29.399,147.488 29.500,147.165 29.500 C 146.907 29.500,146.660 29.611,146.606 29.750 C 146.554 29.887,146.396 30.000,146.255 30.000 C 146.115 30.000,146.000 30.109,146.000 30.242 C 146.000 30.388,145.766 30.529,145.417 30.594 C 145.083 30.657,144.833 30.803,144.833 30.935 C 144.833 31.063,144.721 31.167,144.583 31.167 C 144.446 31.167,144.333 31.270,144.333 31.397 C 144.333 31.524,144.183 31.667,144.000 31.715 C 143.817 31.763,143.667 31.922,143.667 32.068 C 143.667 32.214,143.554 32.333,143.417 32.333 C 143.279 32.333,143.167 32.446,143.167 32.583 C 143.167 32.721,143.054 32.833,142.917 32.833 C 142.778 32.833,142.667 32.981,142.667 33.167 C 142.667 33.389,142.556 33.500,142.333 33.500 C 142.074 33.500,142.000 33.611,142.000 34.000 C 142.000 34.333,141.917 34.500,141.750 34.500 C 141.611 34.500,141.500 34.648,141.500 34.833 C 141.500 35.056,141.389 35.167,141.167 35.167 C 140.897 35.167,140.833 35.278,140.833 35.750 C 140.833 36.157,140.758 36.333,140.583 36.333 C 140.409 36.333,140.333 36.509,140.333 36.917 C 140.333 37.389,140.270 37.500,140.000 37.500 C 139.741 37.500,139.667 37.611,139.667 38.000 C 139.667 38.333,139.583 38.500,139.417 38.500 C 139.242 38.500,139.167 38.676,139.167 39.083 C 139.167 39.471,139.089 39.667,138.934 39.667 C 138.683 39.667,138.500 40.016,138.500 40.496 C 138.500 40.662,138.387 40.841,138.250 40.894 C 138.063 40.965,138.000 41.264,138.000 42.078 C 138.000 42.935,137.947 43.167,137.750 43.167 C 137.545 43.167,137.500 43.461,137.500 44.814 C 137.500 46.321,137.472 46.469,137.167 46.548 C 136.844 46.633,136.833 46.776,136.833 51.151 L 136.833 55.667 134.418 55.667 C 132.183 55.667,131.987 55.692,131.795 56.000 C 131.634 56.257,131.406 56.333,130.793 56.333 C 130.199 56.333,130.000 56.396,130.000 56.583 C 130.000 56.721,129.887 56.833,129.750 56.833 C 129.611 56.833,129.500 56.981,129.500 57.167 C 129.500 57.437,129.389 57.500,128.917 57.500 C 128.509 57.500,128.333 57.575,128.333 57.750 C 128.333 57.887,128.229 58.000,128.101 58.000 C 127.846 58.000,127.667 58.350,127.667 58.847 C 127.667 59.023,127.554 59.167,127.417 59.167 C 127.279 59.167,127.167 59.279,127.167 59.417 C 127.167 59.554,127.058 59.667,126.924 59.667 C 126.780 59.667,126.638 59.898,126.575 60.238 C 126.516 60.553,126.362 60.851,126.234 60.900 C 125.893 61.031,125.888 66.500,126.228 66.500 C 126.376 66.500,126.487 66.772,126.544 67.275 C 126.597 67.742,126.738 68.110,126.899 68.200 C 127.046 68.282,127.167 68.459,127.167 68.592 C 127.167 68.725,127.270 68.833,127.397 68.833 C 127.524 68.833,127.667 68.983,127.715 69.167 C 127.763 69.350,127.922 69.500,128.068 69.500 C 128.214 69.500,128.333 69.612,128.333 69.750 C 128.333 69.887,128.446 70.000,128.583 70.000 C 128.721 70.000,128.833 70.112,128.833 70.250 C 128.833 70.389,128.981 70.500,129.167 70.500 C 129.389 70.500,129.500 70.611,129.500 70.833 C 129.500 71.103,129.611 71.167,130.083 71.167 C 130.491 71.167,130.667 71.242,130.667 71.417 C 130.667 71.630,131.120 71.667,133.750 71.667 L 136.833 71.667 136.833 91.083 C 136.833 110.389,136.835 110.500,137.167 110.500 C 137.456 110.500,137.500 110.611,137.500 111.339 C 137.500 111.930,137.574 112.205,137.750 112.273 C 137.893 112.328,138.000 112.576,138.000 112.851 C 138.000 113.159,138.087 113.333,138.239 113.333 C 138.370 113.333,138.525 113.483,138.583 113.667 C 138.642 113.850,138.797 114.000,138.928 114.000 C 139.059 114.000,139.167 114.112,139.167 114.250 C 139.167 114.388,139.261 114.500,139.377 114.500 C 139.492 114.500,139.680 114.650,139.795 114.833 C 139.912 115.022,140.183 115.167,140.418 115.167 C 140.676 115.167,140.833 115.261,140.833 115.417 C 140.833 115.590,141.007 115.667,141.397 115.667 C 141.821 115.667,141.983 115.750,142.048 116.000 C 142.202 116.587,148.333 116.488,148.333 115.899 C 148.333 115.751,148.518 115.667,148.839 115.667 C 149.134 115.667,149.384 115.563,149.440 115.417 C 149.492 115.279,149.640 115.167,149.768 115.167 C 149.896 115.167,150.000 115.021,150.000 114.844 C 150.000 114.602,150.135 114.508,150.542 114.469 C 151.018 114.423,151.090 114.351,151.136 113.875 C 151.168 113.539,151.279 113.333,151.427 113.333 C 151.559 113.333,151.667 113.230,151.667 113.103 C 151.667 112.976,151.817 112.833,152.000 112.785 C 152.243 112.722,152.333 112.558,152.333 112.182 C 152.333 111.835,152.415 111.667,152.583 111.667 C 152.804 111.667,152.833 109.333,152.833 91.667 L 152.833 71.667 158.000 71.667 C 162.481 71.667,163.167 71.634,163.167 71.417 C 163.167 71.242,163.343 71.167,163.750 71.167 C 164.222 71.167,164.333 71.103,164.333 70.833 C 164.333 70.648,164.444 70.500,164.583 70.500 C 164.721 70.500,164.833 70.392,164.833 70.261 C 164.833 70.112,165.039 70.001,165.375 69.969 C 165.851 69.923,165.923 69.851,165.969 69.375 C 166.001 69.039,166.112 68.833,166.261 68.833 C 166.392 68.833,166.500 68.730,166.500 68.603 C 166.500 68.476,166.650 68.333,166.833 68.285 C 167.076 68.222,167.167 68.058,167.167 67.682 C 167.167 67.335,167.248 67.167,167.417 67.167 C 167.630 67.167,167.667 66.704,167.667 64.000 C 167.667 61.296,167.630 60.833,167.417 60.833 C 167.242 60.833,167.167 60.657,167.167 60.250 C 167.167 59.778,167.103 59.667,166.833 59.667 C 166.573 59.667,166.500 59.556,166.500 59.161 C 166.500 58.866,166.396 58.616,166.250 58.560 C 166.112 58.508,166.000 58.360,166.000 58.232 C 166.000 58.104,165.896 58.000,165.768 58.000 C 165.640 58.000,165.492 57.887,165.440 57.750 C 165.387 57.612,165.238 57.500,165.108 57.500 C 164.978 57.500,164.833 57.350,164.785 57.167 C 164.722 56.924,164.558 56.833,164.182 56.833 C 163.835 56.833,163.667 56.752,163.667 56.583 C 163.667 56.395,163.465 56.333,162.853 56.333 C 162.179 56.333,162.024 56.276,161.952 56.000 C 161.867 55.677,161.724 55.667,157.349 55.667 L 152.833 55.667 152.833 52.019 C 152.833 48.512,152.846 48.369,153.167 48.285 C 153.445 48.212,153.500 48.058,153.500 47.349 C 153.500 46.705,153.560 46.500,153.750 46.500 C 153.915 46.500,154.000 46.335,154.000 46.018 C 154.000 45.743,154.107 45.494,154.250 45.440 C 154.393 45.385,154.500 45.136,154.500 44.858 C 154.500 44.512,154.596 44.347,154.833 44.285 C 155.017 44.237,155.167 44.078,155.167 43.932 C 155.167 43.786,155.279 43.667,155.417 43.667 C 155.554 43.667,155.667 43.554,155.667 43.417 C 155.667 43.242,155.843 43.167,156.250 43.167 C 156.722 43.167,156.833 43.103,156.833 42.833 C 156.833 42.526,156.944 42.500,158.250 42.500 C 159.398 42.500,159.667 42.453,159.667 42.250 C 159.667 42.044,159.972 42.000,161.417 42.000 C 162.861 42.000,163.167 41.956,163.167 41.750 C 163.167 41.582,163.335 41.500,163.682 41.500 C 164.058 41.500,164.222 41.409,164.285 41.167 C 164.347 40.931,164.512 40.833,164.853 40.833 C 165.159 40.833,165.333 40.747,165.333 40.595 C 165.333 40.463,165.483 40.308,165.667 40.250 C 165.850 40.192,166.000 40.037,166.000 39.905 C 166.000 39.774,166.112 39.667,166.250 39.667 C 166.425 39.667,166.500 39.491,166.500 39.083 C 166.500 38.611,166.563 38.500,166.833 38.500 C 167.090 38.500,167.167 38.389,167.167 38.018 C 167.167 37.743,167.274 37.494,167.417 37.440 C 167.626 37.359,167.667 36.847,167.667 34.255 C 167.667 31.621,167.630 31.167,167.417 31.167 C 167.242 31.167,167.167 30.991,167.167 30.583 C 167.167 30.111,167.103 30.000,166.833 30.000 C 166.563 30.000,166.500 29.889,166.500 29.417 C 166.500 29.009,166.425 28.833,166.250 28.833 C 166.112 28.833,166.000 28.721,166.000 28.583 C 166.000 28.446,165.893 28.333,165.761 28.333 C 165.630 28.333,165.475 28.183,165.417 28.000 C 165.343 27.766,165.164 27.667,164.822 27.667 C 164.499 27.667,164.333 27.582,164.333 27.417 C 164.333 27.278,164.185 27.167,164.000 27.167 C 163.817 27.167,163.667 27.063,163.667 26.936 C 163.667 26.656,163.158 26.505,162.203 26.502 C 161.724 26.501,161.458 26.418,161.394 26.250 C 161.316 26.048,160.933 26.000,159.399 26.000 C 157.822 26.000,157.500 26.042,157.500 26.250 M183.227 26.250 C 183.161 26.421,182.894 26.500,182.383 26.500 C 181.776 26.500,181.619 26.562,181.548 26.833 C 181.483 27.084,181.321 27.167,180.897 27.167 C 180.507 27.167,180.333 27.244,180.333 27.417 C 180.333 27.556,180.185 27.667,180.000 27.667 C 179.778 27.667,179.667 27.778,179.667 28.000 C 179.667 28.185,179.556 28.333,179.417 28.333 C 179.279 28.333,179.167 28.437,179.167 28.564 C 179.167 28.691,179.017 28.834,178.833 28.882 C 178.650 28.930,178.500 29.088,178.500 29.234 C 178.500 29.380,178.387 29.500,178.250 29.500 C 178.083 29.500,178.000 29.667,178.000 30.000 C 178.000 30.333,177.917 30.500,177.750 30.500 C 177.576 30.500,177.500 30.675,177.500 31.072 C 177.500 31.498,177.415 31.671,177.167 31.750 C 176.835 31.855,176.833 32.002,176.833 71.178 C 176.833 110.389,176.834 110.500,177.167 110.500 C 177.460 110.500,177.500 110.611,177.500 111.417 C 177.500 112.120,177.558 112.333,177.750 112.333 C 177.917 112.333,178.000 112.500,178.000 112.833 C 178.000 113.156,178.085 113.333,178.239 113.333 C 178.370 113.333,178.525 113.483,178.583 113.667 C 178.642 113.850,178.797 114.000,178.928 114.000 C 179.059 114.000,179.167 114.112,179.167 114.250 C 179.167 114.388,179.270 114.500,179.397 114.500 C 179.524 114.500,179.667 114.650,179.715 114.833 C 179.778 115.076,179.942 115.167,180.318 115.167 C 180.665 115.167,180.833 115.248,180.833 115.417 C 180.833 115.590,181.007 115.667,181.397 115.667 C 181.821 115.667,181.983 115.750,182.048 116.000 C 182.183 116.514,187.653 116.514,188.167 116.000 C 188.350 115.817,188.690 115.667,188.922 115.667 C 189.154 115.667,189.387 115.554,189.440 115.417 C 189.492 115.279,189.640 115.167,189.768 115.167 C 189.896 115.167,190.000 115.017,190.000 114.833 C 190.000 114.648,190.111 114.500,190.250 114.500 C 190.387 114.500,190.500 114.388,190.500 114.250 C 190.500 114.111,190.648 114.000,190.833 114.000 C 191.056 114.000,191.167 113.889,191.167 113.667 C 191.167 113.481,191.278 113.333,191.417 113.333 C 191.554 113.333,191.667 113.230,191.667 113.103 C 191.667 112.976,191.817 112.833,192.000 112.785 C 192.243 112.722,192.333 112.558,192.333 112.182 C 192.333 111.835,192.415 111.667,192.583 111.667 C 192.805 111.667,192.833 107.083,192.833 71.417 C 192.833 35.750,192.805 31.167,192.583 31.167 C 192.409 31.167,192.333 30.991,192.333 30.583 C 192.333 30.111,192.270 30.000,192.000 30.000 C 191.752 30.000,191.667 29.889,191.667 29.565 C 191.667 29.122,191.070 28.341,190.728 28.336 C 190.624 28.335,190.500 28.183,190.452 28.000 C 190.393 27.775,190.224 27.667,189.932 27.667 C 189.659 27.667,189.500 27.575,189.500 27.417 C 189.500 27.244,189.326 27.167,188.936 27.167 C 188.512 27.167,188.351 27.084,188.285 26.833 C 188.212 26.555,188.058 26.500,187.349 26.500 C 186.705 26.500,186.500 26.440,186.500 26.250 C 186.500 26.045,186.212 26.000,184.911 26.000 C 183.653 26.000,183.303 26.052,183.227 26.250 M331.727 26.250 C 331.663 26.416,331.399 26.501,330.941 26.502 C 330.008 26.505,329.500 26.658,329.500 26.936 C 329.500 27.063,329.350 27.167,329.167 27.167 C 328.981 27.167,328.833 27.278,328.833 27.417 C 328.833 27.572,328.676 27.667,328.418 27.667 C 328.183 27.667,327.912 27.812,327.795 28.000 C 327.680 28.183,327.492 28.333,327.377 28.333 C 327.261 28.333,327.167 28.446,327.167 28.583 C 327.167 28.721,327.063 28.833,326.935 28.833 C 326.803 28.833,326.657 29.083,326.594 29.417 C 326.529 29.766,326.388 30.000,326.242 30.000 C 326.076 30.000,326.000 30.184,326.000 30.583 C 326.000 30.991,325.925 31.167,325.750 31.167 C 325.528 31.167,325.500 35.750,325.500 71.417 C 325.500 107.083,325.528 111.667,325.750 111.667 C 325.911 111.667,326.001 111.830,326.003 112.125 C 326.006 112.580,326.616 113.333,326.982 113.333 C 327.083 113.333,327.167 113.483,327.167 113.667 C 327.167 113.852,327.278 114.000,327.417 114.000 C 327.554 114.000,327.667 114.112,327.667 114.250 C 327.667 114.389,327.815 114.500,328.000 114.500 C 328.222 114.500,328.333 114.611,328.333 114.833 C 328.333 115.019,328.444 115.167,328.583 115.167 C 328.721 115.167,328.833 115.279,328.833 115.417 C 328.833 115.591,329.009 115.667,329.417 115.667 C 329.802 115.667,330.000 115.745,330.000 115.897 C 330.000 116.478,336.134 116.578,336.285 116.000 C 336.351 115.750,336.512 115.667,336.936 115.667 C 337.326 115.667,337.500 115.590,337.500 115.417 C 337.500 115.250,337.667 115.167,338.000 115.167 C 338.389 115.167,338.500 115.093,338.500 114.833 C 338.500 114.611,338.611 114.500,338.833 114.500 C 339.019 114.500,339.167 114.389,339.167 114.250 C 339.167 114.112,339.279 114.000,339.417 114.000 C 339.554 114.000,339.667 113.859,339.667 113.686 C 339.667 113.512,339.816 113.333,340.000 113.285 C 340.225 113.226,340.333 113.058,340.333 112.766 C 340.333 112.492,340.425 112.333,340.583 112.333 C 340.775 112.333,340.833 112.120,340.833 111.417 C 340.833 110.611,340.874 110.500,341.167 110.500 C 341.495 110.500,341.500 110.389,341.500 102.833 C 341.500 96.130,341.531 95.167,341.750 95.167 C 341.887 95.167,342.000 95.279,342.000 95.417 C 342.000 95.554,342.072 95.667,342.159 95.667 C 342.366 95.667,343.167 96.468,343.167 96.674 C 343.167 96.762,343.279 96.833,343.417 96.833 C 343.554 96.833,343.667 96.946,343.667 97.083 C 343.667 97.222,343.815 97.333,344.000 97.333 C 344.222 97.333,344.333 97.444,344.333 97.667 C 344.333 97.852,344.444 98.000,344.583 98.000 C 344.721 98.000,344.833 98.112,344.833 98.250 C 344.833 98.389,344.981 98.500,345.167 98.500 C 345.389 98.500,345.500 98.611,345.500 98.833 C 345.500 99.019,345.611 99.167,345.750 99.167 C 345.887 99.167,346.000 99.279,346.000 99.417 C 346.000 99.554,346.072 99.667,346.159 99.667 C 346.366 99.667,347.167 100.468,347.167 100.674 C 347.167 100.762,347.279 100.833,347.417 100.833 C 347.554 100.833,347.667 100.946,347.667 101.083 C 347.667 101.222,347.815 101.333,348.000 101.333 C 348.222 101.333,348.333 101.444,348.333 101.667 C 348.333 101.852,348.444 102.000,348.583 102.000 C 348.721 102.000,348.833 102.112,348.833 102.250 C 348.833 102.389,348.981 102.500,349.167 102.500 C 349.389 102.500,349.500 102.611,349.500 102.833 C 349.500 103.019,349.611 103.167,349.750 103.167 C 349.887 103.167,350.000 103.279,350.000 103.417 C 350.000 103.554,350.072 103.667,350.159 103.667 C 350.366 103.667,351.167 104.468,351.167 104.674 C 351.167 104.762,351.279 104.833,351.417 104.833 C 351.554 104.833,351.667 104.946,351.667 105.083 C 351.667 105.222,351.815 105.333,352.000 105.333 C 352.222 105.333,352.333 105.444,352.333 105.667 C 352.333 105.852,352.444 106.000,352.583 106.000 C 352.721 106.000,352.833 106.112,352.833 106.250 C 352.833 106.389,352.981 106.500,353.167 106.500 C 353.389 106.500,353.500 106.611,353.500 106.833 C 353.500 107.019,353.611 107.167,353.750 107.167 C 353.887 107.167,354.000 107.279,354.000 107.417 C 354.000 107.554,354.072 107.667,354.159 107.667 C 354.366 107.667,355.167 108.468,355.167 108.674 C 355.167 108.762,355.279 108.833,355.417 108.833 C 355.554 108.833,355.667 108.946,355.667 109.083 C 355.667 109.222,355.815 109.333,356.000 109.333 C 356.222 109.333,356.333 109.444,356.333 109.667 C 356.333 109.852,356.444 110.000,356.583 110.000 C 356.721 110.000,356.833 110.112,356.833 110.250 C 356.833 110.389,356.981 110.500,357.167 110.500 C 357.389 110.500,357.500 110.611,357.500 110.833 C 357.500 111.019,357.611 111.167,357.750 111.167 C 357.887 111.167,358.000 111.279,358.000 111.417 C 358.000 111.554,358.072 111.667,358.159 111.667 C 358.366 111.667,359.167 112.468,359.167 112.674 C 359.167 112.762,359.279 112.833,359.417 112.833 C 359.554 112.833,359.667 112.946,359.667 113.083 C 359.667 113.222,359.815 113.333,360.000 113.333 C 360.222 113.333,360.333 113.444,360.333 113.667 C 360.333 113.852,360.444 114.000,360.583 114.000 C 360.721 114.000,360.833 114.112,360.833 114.250 C 360.833 114.388,360.975 114.500,361.147 114.500 C 361.321 114.500,361.500 114.649,361.548 114.833 C 361.606 115.054,361.776 115.167,362.050 115.167 C 362.278 115.167,362.508 115.279,362.560 115.417 C 362.616 115.563,362.866 115.667,363.161 115.667 C 363.482 115.667,363.667 115.751,363.667 115.899 C 363.667 116.277,364.065 116.333,366.722 116.331 C 369.446 116.329,370.000 116.255,370.000 115.897 C 370.000 115.745,370.198 115.667,370.583 115.667 C 370.991 115.667,371.167 115.591,371.167 115.417 C 371.167 115.279,371.279 115.167,371.417 115.167 C 371.556 115.167,371.667 115.019,371.667 114.833 C 371.667 114.611,371.778 114.500,372.000 114.500 C 372.185 114.500,372.333 114.389,372.333 114.250 C 372.333 114.112,372.446 114.000,372.583 114.000 C 372.722 114.000,372.833 113.852,372.833 113.667 C 372.833 113.444,372.944 113.333,373.167 113.333 C 373.352 113.333,373.500 113.222,373.500 113.083 C 373.500 112.946,373.613 112.833,373.750 112.833 C 373.925 112.833,374.000 112.657,374.000 112.250 C 374.000 111.843,374.075 111.667,374.250 111.667 C 374.463 111.667,374.500 111.213,374.500 108.583 C 374.500 105.954,374.463 105.500,374.250 105.500 C 374.075 105.500,374.000 105.324,374.000 104.917 C 374.000 104.509,373.925 104.333,373.750 104.333 C 373.582 104.333,373.500 104.165,373.500 103.818 C 373.500 103.442,373.409 103.278,373.167 103.215 C 372.983 103.167,372.833 103.053,372.833 102.962 C 372.833 102.721,372.119 102.006,371.875 102.003 C 371.760 102.001,371.667 101.888,371.667 101.750 C 371.667 101.612,371.554 101.500,371.417 101.500 C 371.278 101.500,371.167 101.352,371.167 101.167 C 371.167 100.944,371.056 100.833,370.833 100.833 C 370.648 100.833,370.500 100.722,370.500 100.583 C 370.500 100.446,370.387 100.333,370.250 100.333 C 370.111 100.333,370.000 100.185,370.000 100.000 C 370.000 99.817,369.896 99.667,369.768 99.667 C 369.640 99.667,369.492 99.554,369.440 99.417 C 369.387 99.279,369.229 99.167,369.089 99.167 C 368.948 99.167,368.833 99.083,368.833 98.982 C 368.833 98.726,368.129 98.006,367.875 98.003 C 367.760 98.001,367.667 97.888,367.667 97.750 C 367.667 97.612,367.554 97.500,367.417 97.500 C 367.278 97.500,367.167 97.352,367.167 97.167 C 367.167 96.944,367.056 96.833,366.833 96.833 C 366.648 96.833,366.500 96.722,366.500 96.583 C 366.500 96.446,366.387 96.333,366.250 96.333 C 366.111 96.333,366.000 96.185,366.000 96.000 C 366.000 95.817,365.896 95.667,365.768 95.667 C 365.640 95.667,365.492 95.554,365.440 95.417 C 365.387 95.279,365.229 95.167,365.089 95.167 C 364.948 95.167,364.833 95.083,364.833 94.982 C 364.833 94.726,364.129 94.006,363.875 94.003 C 363.760 94.001,363.667 93.888,363.667 93.750 C 363.667 93.612,363.554 93.500,363.417 93.500 C 363.278 93.500,363.167 93.352,363.167 93.167 C 363.167 92.944,363.056 92.833,362.833 92.833 C 362.648 92.833,362.500 92.722,362.500 92.583 C 362.500 92.446,362.387 92.333,362.250 92.333 C 362.111 92.333,362.000 92.185,362.000 92.000 C 362.000 91.817,361.896 91.667,361.768 91.667 C 361.640 91.667,361.492 91.554,361.440 91.417 C 361.387 91.279,361.229 91.167,361.089 91.167 C 360.948 91.167,360.833 91.083,360.833 90.982 C 360.833 90.726,360.129 90.006,359.875 90.003 C 359.760 90.001,359.667 89.888,359.667 89.750 C 359.667 89.612,359.554 89.500,359.417 89.500 C 359.279 89.500,359.167 89.380,359.167 89.234 C 359.167 89.088,359.017 88.930,358.833 88.882 C 358.650 88.834,358.500 88.691,358.500 88.564 C 358.500 88.437,358.387 88.333,358.250 88.333 C 358.113 88.333,358.000 88.214,358.000 88.068 C 358.000 87.922,357.850 87.763,357.667 87.715 C 357.483 87.667,357.333 87.524,357.333 87.397 C 357.333 87.270,357.221 87.167,357.083 87.167 C 356.946 87.167,356.833 87.085,356.833 86.985 C 356.833 86.885,356.687 86.679,356.508 86.527 C 356.138 86.211,356.207 85.333,356.603 85.333 C 356.730 85.333,356.833 85.221,356.833 85.083 C 356.833 84.944,356.981 84.833,357.167 84.833 C 357.352 84.833,357.500 84.722,357.500 84.583 C 357.500 84.446,357.613 84.333,357.750 84.333 C 357.889 84.333,358.000 84.185,358.000 84.000 C 358.000 83.815,358.111 83.667,358.250 83.667 C 358.387 83.667,358.500 83.554,358.500 83.417 C 358.500 83.278,358.648 83.167,358.833 83.167 C 359.056 83.167,359.167 83.056,359.167 82.833 C 359.167 82.648,359.278 82.500,359.417 82.500 C 359.554 82.500,359.667 82.387,359.667 82.250 C 359.667 82.111,359.815 82.000,360.000 82.000 C 360.222 82.000,360.333 81.889,360.333 81.667 C 360.333 81.481,360.444 81.333,360.583 81.333 C 360.721 81.333,360.833 81.221,360.833 81.083 C 360.833 80.944,360.981 80.833,361.167 80.833 C 361.352 80.833,361.500 80.722,361.500 80.583 C 361.500 80.446,361.613 80.333,361.750 80.333 C 361.889 80.333,362.000 80.185,362.000 80.000 C 362.000 79.815,362.111 79.667,362.250 79.667 C 362.387 79.667,362.500 79.554,362.500 79.417 C 362.500 79.278,362.648 79.167,362.833 79.167 C 363.056 79.167,363.167 79.056,363.167 78.833 C 363.167 78.648,363.278 78.500,363.417 78.500 C 363.554 78.500,363.667 78.387,363.667 78.250 C 363.667 78.111,363.815 78.000,364.000 78.000 C 364.222 78.000,364.333 77.889,364.333 77.667 C 364.333 77.481,364.444 77.333,364.583 77.333 C 364.721 77.333,364.833 77.221,364.833 77.083 C 364.833 76.944,364.981 76.833,365.167 76.833 C 365.352 76.833,365.500 76.722,365.500 76.583 C 365.500 76.446,365.613 76.333,365.750 76.333 C 365.889 76.333,366.000 76.185,366.000 76.000 C 366.000 75.815,366.111 75.667,366.250 75.667 C 366.387 75.667,366.500 75.554,366.500 75.417 C 366.500 75.278,366.648 75.167,366.833 75.167 C 367.056 75.167,367.167 75.056,367.167 74.833 C 367.167 74.648,367.278 74.500,367.417 74.500 C 367.554 74.500,367.667 74.387,367.667 74.250 C 367.667 74.111,367.815 74.000,368.000 74.000 C 368.222 74.000,368.333 73.889,368.333 73.667 C 368.333 73.481,368.444 73.333,368.583 73.333 C 368.721 73.333,368.833 73.221,368.833 73.083 C 368.833 72.944,368.981 72.833,369.167 72.833 C 369.352 72.833,369.500 72.722,369.500 72.583 C 369.500 72.446,369.613 72.333,369.750 72.333 C 369.889 72.333,370.000 72.185,370.000 72.000 C 370.000 71.815,370.111 71.667,370.250 71.667 C 370.387 71.667,370.500 71.554,370.500 71.417 C 370.500 71.278,370.648 71.167,370.833 71.167 C 371.056 71.167,371.167 71.056,371.167 70.833 C 371.167 70.648,371.278 70.500,371.417 70.500 C 371.554 70.500,371.667 70.387,371.667 70.250 C 371.667 70.111,371.815 70.000,372.000 70.000 C 372.185 70.000,372.333 69.889,372.333 69.750 C 372.333 69.612,372.446 69.500,372.583 69.500 C 372.722 69.500,372.833 69.352,372.833 69.167 C 372.833 68.944,372.944 68.833,373.167 68.833 C 373.350 68.833,373.500 68.729,373.500 68.601 C 373.500 68.473,373.613 68.326,373.750 68.273 C 373.893 68.218,374.000 67.969,374.000 67.690 C 374.000 67.410,374.107 67.161,374.250 67.106 C 374.460 67.026,374.500 66.514,374.500 63.922 C 374.500 61.288,374.463 60.833,374.250 60.833 C 374.075 60.833,374.000 60.657,374.000 60.250 C 374.000 59.857,373.923 59.667,373.763 59.667 C 373.633 59.667,373.478 59.448,373.420 59.181 C 373.361 58.913,373.205 58.653,373.073 58.602 C 372.941 58.552,372.833 58.396,372.833 58.255 C 372.833 58.115,372.721 58.000,372.583 58.000 C 372.446 58.000,372.333 57.887,372.333 57.750 C 372.333 57.575,372.157 57.500,371.750 57.500 C 371.278 57.500,371.167 57.437,371.167 57.167 C 371.167 56.897,371.056 56.833,370.583 56.833 C 370.176 56.833,370.000 56.758,370.000 56.583 C 370.000 56.369,369.509 56.333,366.583 56.333 C 363.657 56.333,363.167 56.369,363.167 56.583 C 363.167 56.758,362.991 56.833,362.583 56.833 C 362.111 56.833,362.000 56.897,362.000 57.167 C 362.000 57.352,361.889 57.500,361.750 57.500 C 361.613 57.500,361.500 57.612,361.500 57.750 C 361.500 57.889,361.352 58.000,361.167 58.000 C 360.981 58.000,360.833 58.111,360.833 58.250 C 360.833 58.387,360.721 58.500,360.583 58.500 C 360.444 58.500,360.333 58.648,360.333 58.833 C 360.333 59.056,360.222 59.167,360.000 59.167 C 359.815 59.167,359.667 59.278,359.667 59.417 C 359.667 59.554,359.554 59.667,359.417 59.667 C 359.278 59.667,359.167 59.815,359.167 60.000 C 359.167 60.222,359.056 60.333,358.833 60.333 C 358.648 60.333,358.500 60.444,358.500 60.583 C 358.500 60.721,358.387 60.833,358.250 60.833 C 358.111 60.833,358.000 60.981,358.000 61.167 C 358.000 61.352,357.889 61.500,357.750 61.500 C 357.613 61.500,357.500 61.612,357.500 61.750 C 357.500 61.889,357.352 62.000,357.167 62.000 C 356.981 62.000,356.833 62.111,356.833 62.250 C 356.833 62.387,356.721 62.500,356.583 62.500 C 356.444 62.500,356.333 62.648,356.333 62.833 C 356.333 63.056,356.222 63.167,356.000 63.167 C 355.815 63.167,355.667 63.278,355.667 63.417 C 355.667 63.554,355.554 63.667,355.417 63.667 C 355.278 63.667,355.167 63.815,355.167 64.000 C 355.167 64.222,355.056 64.333,354.833 64.333 C 354.648 64.333,354.500 64.444,354.500 64.583 C 354.500 64.721,354.387 64.833,354.250 64.833 C 354.111 64.833,354.000 64.981,354.000 65.167 C 354.000 65.352,353.889 65.500,353.750 65.500 C 353.613 65.500,353.500 65.612,353.500 65.750 C 353.500 65.889,353.352 66.000,353.167 66.000 C 352.981 66.000,352.833 66.111,352.833 66.250 C 352.833 66.387,352.721 66.500,352.583 66.500 C 352.444 66.500,352.333 66.648,352.333 66.833 C 352.333 67.056,352.222 67.167,352.000 67.167 C 351.815 67.167,351.667 67.278,351.667 67.417 C 351.667 67.554,351.554 67.667,351.417 67.667 C 351.278 67.667,351.167 67.815,351.167 68.000 C 351.167 68.222,351.056 68.333,350.833 68.333 C 350.648 68.333,350.500 68.444,350.500 68.583 C 350.500 68.721,350.387 68.833,350.250 68.833 C 350.111 68.833,350.000 68.981,350.000 69.167 C 350.000 69.352,349.889 69.500,349.750 69.500 C 349.613 69.500,349.500 69.612,349.500 69.750 C 349.500 69.889,349.352 70.000,349.167 70.000 C 348.981 70.000,348.833 70.111,348.833 70.250 C 348.833 70.387,348.721 70.500,348.583 70.500 C 348.444 70.500,348.333 70.648,348.333 70.833 C 348.333 71.056,348.222 71.167,348.000 71.167 C 347.815 71.167,347.667 71.278,347.667 71.417 C 347.667 71.554,347.554 71.667,347.417 71.667 C 347.278 71.667,347.167 71.815,347.167 72.000 C 347.167 72.222,347.056 72.333,346.833 72.333 C 346.648 72.333,346.500 72.444,346.500 72.583 C 346.500 72.721,346.387 72.833,346.250 72.833 C 346.111 72.833,346.000 72.981,346.000 73.167 C 346.000 73.352,345.889 73.500,345.750 73.500 C 345.613 73.500,345.500 73.612,345.500 73.750 C 345.500 73.889,345.352 74.000,345.167 74.000 C 344.981 74.000,344.833 74.111,344.833 74.250 C 344.833 74.387,344.721 74.500,344.583 74.500 C 344.444 74.500,344.333 74.648,344.333 74.833 C 344.333 75.056,344.222 75.167,344.000 75.167 C 343.815 75.167,343.667 75.278,343.667 75.417 C 343.667 75.554,343.554 75.667,343.417 75.667 C 343.278 75.667,343.167 75.815,343.167 76.000 C 343.167 76.222,343.056 76.333,342.833 76.333 C 342.648 76.333,342.500 76.444,342.500 76.583 C 342.500 76.721,342.387 76.833,342.250 76.833 C 342.111 76.833,342.000 76.981,342.000 77.167 C 342.000 77.351,341.889 77.500,341.752 77.500 C 341.533 77.500,341.498 74.768,341.460 54.737 C 341.419 33.278,341.400 31.961,341.125 31.760 C 340.954 31.635,340.833 31.329,340.833 31.023 C 340.833 30.669,340.752 30.500,340.583 30.500 C 340.417 30.500,340.333 30.333,340.333 30.000 C 340.333 29.611,340.259 29.500,340.000 29.500 C 339.778 29.500,339.667 29.389,339.667 29.167 C 339.667 28.981,339.556 28.833,339.417 28.833 C 339.279 28.833,339.167 28.721,339.167 28.583 C 339.167 28.444,339.019 28.333,338.833 28.333 C 338.611 28.333,338.500 28.222,338.500 28.000 C 338.500 27.815,338.389 27.667,338.250 27.667 C 338.112 27.667,338.000 27.554,338.000 27.417 C 338.000 27.244,337.826 27.167,337.436 27.167 C 337.012 27.167,336.851 27.084,336.785 26.833 C 336.709 26.543,336.558 26.500,335.599 26.500 C 334.733 26.500,334.500 26.447,334.500 26.250 C 334.500 26.049,334.240 26.000,333.161 26.000 C 332.125 26.000,331.801 26.056,331.727 26.250 M228.882 56.000 C 228.802 56.305,228.654 56.333,227.147 56.333 C 225.794 56.333,225.500 56.378,225.500 56.583 C 225.500 56.782,225.259 56.833,224.333 56.833 C 223.278 56.833,223.167 56.865,223.167 57.167 C 223.167 57.456,223.056 57.500,222.333 57.500 C 221.704 57.500,221.500 57.561,221.500 57.750 C 221.500 57.925,221.324 58.000,220.917 58.000 C 220.509 58.000,220.333 58.075,220.333 58.250 C 220.333 58.423,220.159 58.500,219.764 58.500 C 219.029 58.500,218.667 58.644,218.667 58.934 C 218.667 59.089,218.471 59.167,218.083 59.167 C 217.676 59.167,217.500 59.242,217.500 59.417 C 217.500 59.556,217.352 59.667,217.167 59.667 C 216.944 59.667,216.833 59.778,216.833 60.000 C 216.833 60.270,216.722 60.333,216.250 60.333 C 215.843 60.333,215.667 60.409,215.667 60.583 C 215.667 60.721,215.554 60.833,215.417 60.833 C 215.278 60.833,215.167 60.981,215.167 61.167 C 215.167 61.437,215.056 61.500,214.583 61.500 C 214.176 61.500,214.000 61.575,214.000 61.750 C 214.000 61.887,213.887 62.000,213.750 62.000 C 213.612 62.000,213.500 62.112,213.500 62.250 C 213.500 62.389,213.352 62.500,213.167 62.500 C 212.944 62.500,212.833 62.611,212.833 62.833 C 212.833 63.076,212.722 63.167,212.425 63.167 C 212.001 63.167,211.167 63.814,211.167 64.144 C 211.167 64.248,211.054 64.333,210.917 64.333 C 210.779 64.333,210.667 64.446,210.667 64.583 C 210.667 64.721,210.547 64.833,210.401 64.833 C 210.255 64.833,210.096 64.983,210.048 65.167 C 210.000 65.350,209.857 65.500,209.731 65.500 C 209.585 65.500,209.500 65.685,209.500 66.000 C 209.500 66.389,209.426 66.500,209.167 66.500 C 208.944 66.500,208.833 66.611,208.833 66.833 C 208.833 67.019,208.722 67.167,208.583 67.167 C 208.446 67.167,208.333 67.279,208.333 67.417 C 208.333 67.554,208.214 67.667,208.068 67.667 C 207.922 67.667,207.763 67.817,207.715 68.000 C 207.667 68.183,207.524 68.333,207.397 68.333 C 207.246 68.333,207.167 68.528,207.167 68.897 C 207.167 69.321,207.084 69.483,206.833 69.548 C 206.608 69.607,206.500 69.776,206.500 70.068 C 206.500 70.341,206.408 70.500,206.250 70.500 C 206.111 70.500,206.000 70.648,206.000 70.833 C 206.000 71.019,205.889 71.167,205.750 71.167 C 205.575 71.167,205.500 71.343,205.500 71.750 C 205.500 72.222,205.437 72.333,205.167 72.333 C 204.897 72.333,204.833 72.444,204.833 72.917 C 204.833 73.324,204.758 73.500,204.583 73.500 C 204.394 73.500,204.333 73.704,204.333 74.333 C 204.333 75.056,204.289 75.167,204.000 75.167 C 203.711 75.167,203.667 75.278,203.667 76.000 C 203.667 76.630,203.606 76.833,203.417 76.833 C 203.231 76.833,203.167 77.028,203.167 77.583 C 203.167 78.111,203.068 78.432,202.833 78.667 C 202.559 78.941,202.500 79.222,202.500 80.250 C 202.500 81.250,202.450 81.500,202.250 81.500 C 202.034 81.500,202.000 82.111,202.000 86.000 C 202.000 89.889,202.034 90.500,202.250 90.500 C 202.450 90.500,202.500 90.748,202.500 91.729 C 202.500 93.265,202.642 94.000,202.938 94.000 C 203.101 94.000,203.167 94.237,203.167 94.833 C 203.167 95.463,203.228 95.667,203.417 95.667 C 203.606 95.667,203.667 95.870,203.667 96.500 C 203.667 97.222,203.711 97.333,204.000 97.333 C 204.270 97.333,204.333 97.444,204.333 97.917 C 204.333 98.324,204.409 98.500,204.583 98.500 C 204.758 98.500,204.833 98.676,204.833 99.083 C 204.833 99.556,204.897 99.667,205.167 99.667 C 205.437 99.667,205.500 99.778,205.500 100.250 C 205.500 100.657,205.575 100.833,205.750 100.833 C 205.925 100.833,206.000 101.009,206.000 101.417 C 206.000 101.810,206.077 102.000,206.237 102.000 C 206.367 102.000,206.524 102.230,206.586 102.511 C 206.648 102.792,206.804 103.063,206.932 103.112 C 207.061 103.162,207.167 103.307,207.167 103.434 C 207.167 103.562,207.279 103.667,207.417 103.667 C 207.554 103.667,207.667 103.811,207.667 103.986 C 207.667 104.483,207.846 104.833,208.101 104.833 C 208.229 104.833,208.333 104.946,208.333 105.083 C 208.333 105.221,208.446 105.333,208.583 105.333 C 208.722 105.333,208.833 105.481,208.833 105.667 C 208.833 105.889,208.944 106.000,209.167 106.000 C 209.352 106.000,209.500 106.111,209.500 106.250 C 209.500 106.388,209.612 106.500,209.750 106.500 C 209.889 106.500,210.000 106.648,210.000 106.833 C 210.000 107.017,210.104 107.167,210.232 107.167 C 210.360 107.167,210.508 107.279,210.560 107.417 C 210.613 107.554,210.771 107.667,210.911 107.667 C 211.056 107.667,211.167 107.812,211.167 108.000 C 211.167 108.185,211.278 108.333,211.417 108.333 C 211.554 108.333,211.667 108.446,211.667 108.583 C 211.667 108.722,211.815 108.833,212.000 108.833 C 212.185 108.833,212.333 108.944,212.333 109.083 C 212.333 109.221,212.446 109.333,212.583 109.333 C 212.722 109.333,212.833 109.481,212.833 109.667 C 212.833 109.889,212.944 110.000,213.167 110.000 C 213.352 110.000,213.500 110.111,213.500 110.250 C 213.500 110.414,213.665 110.500,213.981 110.500 C 214.321 110.500,214.487 110.597,214.548 110.833 C 214.596 111.017,214.755 111.167,214.901 111.167 C 215.047 111.167,215.167 111.279,215.167 111.417 C 215.167 111.591,215.343 111.667,215.750 111.667 C 216.222 111.667,216.333 111.730,216.333 112.000 C 216.333 112.183,216.438 112.333,216.566 112.333 C 216.693 112.333,216.841 112.446,216.894 112.583 C 216.950 112.729,217.199 112.833,217.495 112.833 C 217.833 112.833,218.000 112.916,218.000 113.083 C 218.000 113.256,218.174 113.333,218.564 113.333 C 218.988 113.333,219.149 113.416,219.215 113.667 C 219.286 113.939,219.442 114.000,220.068 114.000 C 220.637 114.000,220.833 114.064,220.833 114.250 C 220.833 114.425,221.009 114.500,221.417 114.500 C 221.804 114.500,222.000 114.578,222.000 114.732 C 222.000 115.053,222.374 115.167,223.430 115.167 C 224.122 115.167,224.333 115.225,224.333 115.417 C 224.333 115.613,224.564 115.667,225.411 115.667 C 226.318 115.667,226.517 115.719,226.667 116.000 C 226.840 116.323,227.016 116.333,232.355 116.333 C 237.724 116.333,237.867 116.325,237.952 116.000 C 238.028 115.707,238.179 115.667,239.186 115.667 C 240.095 115.667,240.333 115.615,240.333 115.417 C 240.333 115.222,240.557 115.167,241.349 115.167 C 242.224 115.167,242.377 115.121,242.452 114.833 C 242.517 114.583,242.679 114.500,243.103 114.500 C 243.493 114.500,243.667 114.423,243.667 114.250 C 243.667 114.062,243.868 114.000,244.481 114.000 C 245.154 114.000,245.309 113.943,245.382 113.667 C 245.445 113.424,245.609 113.333,245.984 113.333 C 246.332 113.333,246.500 113.252,246.500 113.083 C 246.500 112.909,246.676 112.833,247.083 112.833 C 247.491 112.833,247.667 112.758,247.667 112.583 C 247.667 112.446,247.786 112.333,247.932 112.333 C 248.078 112.333,248.237 112.183,248.285 112.000 C 248.347 111.763,248.512 111.667,248.858 111.667 C 249.136 111.667,249.385 111.560,249.440 111.417 C 249.492 111.279,249.640 111.167,249.768 111.167 C 249.896 111.167,250.000 111.017,250.000 110.833 C 250.000 110.573,250.111 110.500,250.505 110.500 C 250.801 110.500,251.050 110.396,251.106 110.250 C 251.159 110.112,251.307 110.000,251.434 110.000 C 251.562 110.000,251.667 109.850,251.667 109.667 C 251.667 109.444,251.778 109.333,252.000 109.333 C 252.185 109.333,252.333 109.222,252.333 109.083 C 252.333 108.946,252.446 108.833,252.583 108.833 C 252.721 108.833,252.833 108.721,252.833 108.583 C 252.833 108.446,252.953 108.333,253.099 108.333 C 253.245 108.333,253.404 108.183,253.452 108.000 C 253.500 107.817,253.643 107.667,253.769 107.667 C 253.896 107.667,254.000 107.554,254.000 107.417 C 254.000 107.279,254.112 107.167,254.250 107.167 C 254.389 107.167,254.500 107.019,254.500 106.833 C 254.500 106.611,254.611 106.500,254.833 106.500 C 255.019 106.500,255.167 106.389,255.167 106.250 C 255.167 106.112,255.279 106.000,255.417 106.000 C 255.556 106.000,255.667 105.852,255.667 105.667 C 255.667 105.444,255.778 105.333,256.000 105.333 C 256.183 105.333,256.333 105.229,256.333 105.101 C 256.333 104.973,256.446 104.826,256.583 104.773 C 256.729 104.717,256.833 104.467,256.833 104.172 C 256.833 103.778,256.907 103.667,257.167 103.667 C 257.350 103.667,257.500 103.562,257.500 103.434 C 257.500 103.307,257.612 103.159,257.750 103.106 C 257.896 103.050,258.000 102.801,258.000 102.505 C 258.000 102.167,258.083 102.000,258.250 102.000 C 258.425 102.000,258.500 101.824,258.500 101.417 C 258.500 100.944,258.563 100.833,258.833 100.833 C 259.056 100.833,259.167 100.722,259.167 100.500 C 259.167 100.315,259.278 100.167,259.417 100.167 C 259.606 100.167,259.667 99.963,259.667 99.333 C 259.667 98.611,259.711 98.500,260.000 98.500 C 260.270 98.500,260.333 98.389,260.333 97.917 C 260.333 97.509,260.409 97.333,260.583 97.333 C 260.772 97.333,260.833 97.130,260.833 96.500 C 260.833 95.778,260.878 95.667,261.167 95.667 C 261.456 95.667,261.500 95.556,261.500 94.833 C 261.500 94.204,261.561 94.000,261.750 94.000 C 261.953 94.000,262.000 93.731,262.000 92.583 C 262.000 91.435,262.047 91.167,262.250 91.167 C 262.466 91.167,262.500 90.519,262.500 86.333 C 262.500 82.148,262.466 81.500,262.250 81.500 C 262.047 81.500,262.000 81.231,262.000 80.078 C 262.000 78.968,261.945 78.635,261.750 78.560 C 261.584 78.497,261.499 78.232,261.498 77.774 C 261.495 76.841,261.342 76.333,261.064 76.333 C 260.912 76.333,260.833 76.136,260.833 75.750 C 260.833 75.343,260.758 75.167,260.583 75.167 C 260.394 75.167,260.333 74.963,260.333 74.333 C 260.333 73.611,260.289 73.500,260.000 73.500 C 259.730 73.500,259.667 73.389,259.667 72.917 C 259.667 72.509,259.591 72.333,259.417 72.333 C 259.242 72.333,259.167 72.157,259.167 71.750 C 259.167 71.278,259.103 71.167,258.833 71.167 C 258.563 71.167,258.500 71.056,258.500 70.583 C 258.500 70.176,258.425 70.000,258.250 70.000 C 258.112 70.000,258.000 69.887,258.000 69.750 C 258.000 69.612,257.896 69.500,257.769 69.500 C 257.636 69.500,257.490 69.251,257.428 68.917 C 257.362 68.567,257.221 68.333,257.076 68.333 C 256.942 68.333,256.833 68.183,256.833 68.000 C 256.833 67.815,256.722 67.667,256.583 67.667 C 256.446 67.667,256.333 67.554,256.333 67.417 C 256.333 67.278,256.185 67.167,256.000 67.167 C 255.778 67.167,255.667 67.056,255.667 66.833 C 255.667 66.648,255.556 66.500,255.417 66.500 C 255.259 66.500,255.167 66.341,255.167 66.068 C 255.167 65.776,255.059 65.607,254.833 65.548 C 254.649 65.500,254.500 65.321,254.500 65.147 C 254.500 64.975,254.387 64.833,254.250 64.833 C 254.112 64.833,254.000 64.721,254.000 64.583 C 254.000 64.444,253.852 64.333,253.667 64.333 C 253.478 64.333,253.333 64.222,253.333 64.078 C 253.333 63.938,253.221 63.780,253.083 63.727 C 252.946 63.674,252.833 63.527,252.833 63.399 C 252.833 63.245,252.637 63.167,252.250 63.167 C 251.778 63.167,251.667 63.103,251.667 62.833 C 251.667 62.648,251.556 62.500,251.417 62.500 C 251.279 62.500,251.167 62.387,251.167 62.250 C 251.167 62.111,251.019 62.000,250.833 62.000 C 250.648 62.000,250.500 61.889,250.500 61.750 C 250.500 61.586,250.335 61.500,250.019 61.500 C 249.679 61.500,249.513 61.403,249.452 61.167 C 249.404 60.983,249.245 60.833,249.099 60.833 C 248.953 60.833,248.833 60.721,248.833 60.583 C 248.833 60.409,248.657 60.333,248.250 60.333 C 247.778 60.333,247.667 60.270,247.667 60.000 C 247.667 59.817,247.562 59.667,247.434 59.667 C 247.307 59.667,247.159 59.554,247.106 59.417 C 247.050 59.271,246.801 59.167,246.505 59.167 C 246.186 59.167,246.000 59.082,246.000 58.936 C 246.000 58.683,245.505 58.506,244.792 58.502 C 244.496 58.501,244.333 58.411,244.333 58.250 C 244.333 58.075,244.157 58.000,243.750 58.000 C 243.343 58.000,243.167 57.925,243.167 57.750 C 243.167 57.562,242.964 57.500,242.345 57.500 C 241.669 57.500,241.504 57.441,241.417 57.167 C 241.325 56.879,241.164 56.833,240.239 56.833 C 239.397 56.833,239.167 56.780,239.167 56.583 C 239.167 56.377,238.861 56.333,237.417 56.333 C 235.778 56.333,235.667 56.312,235.667 56.000 C 235.667 55.678,235.556 55.667,232.318 55.667 C 229.109 55.667,228.965 55.681,228.882 56.000 M296.882 56.000 C 296.802 56.305,296.654 56.333,295.147 56.333 C 293.794 56.333,293.500 56.378,293.500 56.583 C 293.500 56.780,293.267 56.833,292.401 56.833 C 291.442 56.833,291.291 56.876,291.215 57.167 C 291.149 57.417,290.988 57.500,290.564 57.500 C 290.174 57.500,290.000 57.577,290.000 57.750 C 290.000 57.939,289.796 58.000,289.167 58.000 C 288.567 58.000,288.333 58.065,288.333 58.231 C 288.333 58.364,288.084 58.510,287.750 58.572 C 287.401 58.638,287.167 58.779,287.167 58.924 C 287.167 59.083,286.992 59.167,286.661 59.167 C 286.366 59.167,286.116 59.271,286.060 59.417 C 286.008 59.554,285.860 59.667,285.732 59.667 C 285.604 59.667,285.500 59.817,285.500 60.000 C 285.500 60.270,285.389 60.333,284.917 60.333 C 284.531 60.333,284.333 60.412,284.333 60.564 C 284.333 60.691,284.183 60.834,284.000 60.882 C 283.817 60.930,283.667 61.088,283.667 61.234 C 283.667 61.380,283.554 61.500,283.417 61.500 C 283.279 61.500,283.167 61.612,283.167 61.750 C 283.167 61.908,283.007 62.000,282.732 62.000 C 282.277 62.000,281.508 62.600,281.503 62.958 C 281.501 63.073,281.350 63.167,281.167 63.167 C 280.981 63.167,280.833 63.278,280.833 63.417 C 280.833 63.554,280.721 63.667,280.583 63.667 C 280.444 63.667,280.333 63.815,280.333 64.000 C 280.333 64.222,280.222 64.333,280.000 64.333 C 279.815 64.333,279.667 64.444,279.667 64.583 C 279.667 64.721,279.554 64.833,279.417 64.833 C 279.278 64.833,279.167 64.981,279.167 65.167 C 279.167 65.350,279.060 65.500,278.930 65.500 C 278.800 65.500,278.644 65.725,278.583 66.000 C 278.523 66.275,278.367 66.500,278.237 66.500 C 278.107 66.500,278.000 66.650,278.000 66.833 C 278.000 67.019,277.889 67.167,277.750 67.167 C 277.612 67.167,277.500 67.274,277.500 67.405 C 277.500 67.537,277.350 67.692,277.167 67.750 C 276.933 67.824,276.833 68.002,276.833 68.345 C 276.833 68.668,276.749 68.833,276.583 68.833 C 276.446 68.833,276.333 68.975,276.333 69.147 C 276.333 69.321,276.184 69.500,276.000 69.548 C 275.779 69.606,275.667 69.776,275.667 70.050 C 275.667 70.278,275.554 70.508,275.417 70.560 C 275.271 70.616,275.167 70.866,275.167 71.161 C 275.167 71.492,275.083 71.667,274.924 71.667 C 274.779 71.667,274.638 71.901,274.572 72.250 C 274.510 72.584,274.364 72.833,274.231 72.833 C 274.065 72.833,274.000 73.067,274.000 73.667 C 274.000 74.296,273.939 74.500,273.750 74.500 C 273.577 74.500,273.500 74.674,273.500 75.064 C 273.500 75.488,273.417 75.649,273.167 75.715 C 272.876 75.791,272.833 75.942,272.833 76.901 C 272.833 77.767,272.780 78.000,272.583 78.000 C 272.381 78.000,272.333 78.266,272.333 79.397 C 272.333 80.654,272.300 80.803,272.000 80.882 C 271.676 80.966,271.667 81.109,271.667 86.250 C 271.667 91.391,271.676 91.534,272.000 91.618 C 272.300 91.697,272.333 91.846,272.333 93.103 C 272.333 94.234,272.381 94.500,272.583 94.500 C 272.773 94.500,272.833 94.705,272.833 95.349 C 272.833 96.058,272.888 96.212,273.167 96.285 C 273.443 96.357,273.500 96.512,273.500 97.186 C 273.500 97.798,273.562 98.000,273.750 98.000 C 273.925 98.000,274.000 98.176,274.000 98.583 C 274.000 98.966,274.078 99.167,274.229 99.167 C 274.377 99.167,274.496 99.459,274.568 100.000 C 274.643 100.571,274.755 100.833,274.922 100.833 C 275.057 100.833,275.167 100.946,275.167 101.083 C 275.167 101.221,275.279 101.333,275.417 101.333 C 275.591 101.333,275.667 101.509,275.667 101.917 C 275.667 102.389,275.730 102.500,276.000 102.500 C 276.270 102.500,276.333 102.611,276.333 103.083 C 276.333 103.469,276.412 103.667,276.564 103.667 C 276.691 103.667,276.834 103.817,276.882 104.000 C 276.930 104.183,277.088 104.333,277.234 104.333 C 277.418 104.333,277.500 104.487,277.500 104.833 C 277.500 105.167,277.583 105.333,277.750 105.333 C 277.889 105.333,278.000 105.481,278.000 105.667 C 278.000 105.850,278.104 106.000,278.232 106.000 C 278.360 106.000,278.508 106.112,278.560 106.250 C 278.613 106.388,278.771 106.500,278.911 106.500 C 279.056 106.500,279.167 106.645,279.167 106.833 C 279.167 107.019,279.278 107.167,279.417 107.167 C 279.554 107.167,279.667 107.279,279.667 107.417 C 279.667 107.556,279.815 107.667,280.000 107.667 C 280.222 107.667,280.333 107.778,280.333 108.000 C 280.333 108.185,280.444 108.333,280.583 108.333 C 280.721 108.333,280.833 108.446,280.833 108.583 C 280.833 108.722,280.981 108.833,281.167 108.833 C 281.352 108.833,281.500 108.944,281.500 109.083 C 281.500 109.221,281.612 109.333,281.750 109.333 C 281.889 109.333,282.000 109.481,282.000 109.667 C 282.000 109.850,282.104 110.000,282.232 110.000 C 282.360 110.000,282.508 110.112,282.560 110.250 C 282.613 110.388,282.762 110.500,282.892 110.500 C 283.022 110.500,283.167 110.650,283.215 110.833 C 283.278 111.076,283.442 111.167,283.818 111.167 C 284.165 111.167,284.333 111.248,284.333 111.417 C 284.333 111.554,284.437 111.667,284.564 111.667 C 284.691 111.667,284.834 111.817,284.882 112.000 C 284.945 112.243,285.109 112.333,285.484 112.333 C 285.832 112.333,286.000 112.415,286.000 112.583 C 286.000 112.722,286.148 112.833,286.333 112.833 C 286.519 112.833,286.667 112.944,286.667 113.083 C 286.667 113.248,286.831 113.333,287.147 113.333 C 287.488 113.333,287.653 113.431,287.715 113.667 C 287.778 113.906,287.942 114.000,288.300 114.000 C 288.589 114.000,288.838 114.105,288.894 114.250 C 288.959 114.421,289.226 114.500,289.734 114.500 C 290.331 114.500,290.498 114.566,290.583 114.833 C 290.670 115.107,290.836 115.167,291.511 115.167 C 292.131 115.167,292.333 115.228,292.333 115.417 C 292.333 115.613,292.564 115.667,293.411 115.667 C 294.318 115.667,294.517 115.719,294.667 116.000 C 294.839 116.322,295.016 116.333,300.004 116.333 C 304.983 116.333,305.171 116.322,305.372 116.000 C 305.544 115.724,305.761 115.667,306.623 115.667 C 307.440 115.667,307.667 115.612,307.667 115.417 C 307.667 115.227,307.872 115.167,308.516 115.167 C 309.224 115.167,309.379 115.112,309.452 114.833 C 309.524 114.557,309.679 114.500,310.353 114.500 C 310.965 114.500,311.167 114.438,311.167 114.250 C 311.167 114.075,311.343 114.000,311.750 114.000 C 312.222 114.000,312.333 113.937,312.333 113.667 C 312.333 113.407,312.444 113.333,312.839 113.333 C 313.134 113.333,313.384 113.229,313.440 113.083 C 313.492 112.946,313.640 112.833,313.768 112.833 C 313.896 112.833,314.000 112.729,314.000 112.601 C 314.000 112.473,314.112 112.326,314.250 112.273 C 314.387 112.220,314.500 112.062,314.500 111.922 C 314.500 111.778,314.645 111.667,314.833 111.667 C 315.103 111.667,315.167 111.556,315.167 111.083 C 315.167 110.676,315.242 110.500,315.417 110.500 C 315.590 110.500,315.667 110.326,315.667 109.936 C 315.667 109.512,315.750 109.351,316.000 109.285 C 316.314 109.203,316.333 109.058,316.333 106.766 C 316.333 104.444,316.318 104.333,316.000 104.333 C 315.711 104.333,315.667 104.222,315.667 103.495 C 315.667 102.903,315.593 102.628,315.417 102.560 C 315.279 102.508,315.167 102.278,315.167 102.050 C 315.167 101.776,315.054 101.606,314.833 101.548 C 314.649 101.500,314.500 101.321,314.500 101.147 C 314.500 100.975,314.387 100.833,314.250 100.833 C 314.112 100.833,314.000 100.721,314.000 100.583 C 314.000 100.446,313.859 100.333,313.686 100.333 C 313.512 100.333,313.333 100.184,313.285 100.000 C 313.227 99.779,313.058 99.667,312.783 99.667 C 312.555 99.667,312.326 99.554,312.273 99.417 C 312.205 99.240,311.930 99.167,311.339 99.167 C 310.611 99.167,310.500 99.122,310.500 98.833 C 310.500 98.517,310.389 98.500,308.264 98.500 C 305.895 98.500,305.500 98.562,305.500 98.934 C 305.500 99.089,305.304 99.167,304.917 99.167 C 304.509 99.167,304.333 99.242,304.333 99.417 C 304.333 99.605,304.132 99.667,303.519 99.667 C 302.846 99.667,302.691 99.724,302.618 100.000 C 302.536 100.315,302.391 100.333,300.035 100.333 C 297.679 100.333,297.534 100.315,297.452 100.000 C 297.379 99.722,297.224 99.667,296.516 99.667 C 295.872 99.667,295.667 99.606,295.667 99.417 C 295.667 99.279,295.554 99.167,295.417 99.167 C 295.279 99.167,295.167 99.062,295.167 98.934 C 295.167 98.680,294.816 98.500,294.320 98.500 C 294.144 98.500,294.000 98.388,294.000 98.250 C 294.000 98.111,293.852 98.000,293.667 98.000 C 293.483 98.000,293.333 97.897,293.333 97.771 C 293.333 97.645,293.108 97.497,292.833 97.442 C 292.540 97.383,292.333 97.237,292.333 97.087 C 292.333 96.944,292.188 96.833,292.000 96.833 C 291.815 96.833,291.667 96.722,291.667 96.583 C 291.667 96.446,291.554 96.333,291.417 96.333 C 291.248 96.333,291.167 96.165,291.167 95.818 C 291.167 95.442,291.076 95.278,290.833 95.215 C 290.649 95.167,290.500 94.988,290.500 94.814 C 290.500 94.641,290.387 94.500,290.250 94.500 C 290.083 94.500,290.000 94.333,290.000 94.000 C 290.000 93.684,289.915 93.500,289.769 93.500 C 289.636 93.500,289.490 93.251,289.428 92.917 C 289.362 92.567,289.221 92.333,289.076 92.333 C 288.910 92.333,288.833 92.149,288.833 91.750 C 288.833 91.343,288.758 91.167,288.583 91.167 C 288.392 91.167,288.333 90.955,288.333 90.264 C 288.333 89.207,288.220 88.833,287.899 88.833 C 287.709 88.833,287.667 88.311,287.667 86.000 C 287.667 83.278,287.680 83.167,288.000 83.167 C 288.293 83.167,288.333 83.056,288.333 82.250 C 288.333 81.546,288.391 81.333,288.583 81.333 C 288.772 81.333,288.833 81.130,288.833 80.500 C 288.833 79.778,288.878 79.667,289.167 79.667 C 289.437 79.667,289.500 79.556,289.500 79.083 C 289.500 78.676,289.575 78.500,289.750 78.500 C 289.887 78.500,290.000 78.387,290.000 78.250 C 290.000 78.112,290.112 78.000,290.250 78.000 C 290.425 78.000,290.500 77.824,290.500 77.417 C 290.500 76.944,290.563 76.833,290.833 76.833 C 291.019 76.833,291.167 76.722,291.167 76.583 C 291.167 76.446,291.279 76.333,291.417 76.333 C 291.556 76.333,291.667 76.185,291.667 76.000 C 291.667 75.778,291.778 75.667,292.000 75.667 C 292.185 75.667,292.333 75.556,292.333 75.417 C 292.333 75.279,292.446 75.167,292.583 75.167 C 292.722 75.167,292.833 75.019,292.833 74.833 C 292.833 74.611,292.944 74.500,293.167 74.500 C 293.352 74.500,293.500 74.389,293.500 74.250 C 293.500 74.083,293.667 74.000,294.000 74.000 C 294.389 74.000,294.500 73.926,294.500 73.667 C 294.500 73.397,294.611 73.333,295.083 73.333 C 295.491 73.333,295.667 73.258,295.667 73.083 C 295.667 72.909,295.843 72.833,296.250 72.833 C 296.657 72.833,296.833 72.758,296.833 72.583 C 296.833 72.386,297.067 72.333,297.932 72.333 C 298.891 72.333,299.042 72.291,299.118 72.000 C 299.227 71.586,300.833 71.490,300.833 71.897 C 300.833 72.182,301.345 72.328,302.357 72.331 C 302.890 72.333,303.161 72.411,303.227 72.583 C 303.293 72.755,303.561 72.833,304.078 72.833 C 304.638 72.833,304.833 72.898,304.833 73.083 C 304.833 73.273,305.039 73.333,305.682 73.333 C 306.391 73.333,306.546 73.388,306.618 73.667 C 306.698 73.972,306.846 74.000,308.353 74.000 C 309.889 74.000,310.000 73.978,310.000 73.667 C 310.000 73.378,310.111 73.333,310.833 73.333 C 311.463 73.333,311.667 73.272,311.667 73.083 C 311.667 72.909,311.843 72.833,312.250 72.833 C 312.636 72.833,312.833 72.755,312.833 72.603 C 312.833 72.476,312.983 72.333,313.167 72.285 C 313.350 72.237,313.500 72.078,313.500 71.932 C 313.500 71.786,313.612 71.667,313.750 71.667 C 313.887 71.667,314.000 71.554,314.000 71.417 C 314.000 71.279,314.112 71.167,314.250 71.167 C 314.389 71.167,314.500 71.019,314.500 70.833 C 314.500 70.611,314.611 70.500,314.833 70.500 C 315.093 70.500,315.167 70.389,315.167 70.000 C 315.167 69.667,315.250 69.500,315.417 69.500 C 315.590 69.500,315.667 69.326,315.667 68.936 C 315.667 68.512,315.750 68.351,316.000 68.285 C 316.315 68.203,316.333 68.058,316.333 65.682 C 316.333 63.278,316.319 63.167,316.000 63.167 C 315.711 63.167,315.667 63.056,315.667 62.333 C 315.667 61.704,315.606 61.500,315.417 61.500 C 315.278 61.500,315.167 61.352,315.167 61.167 C 315.167 60.944,315.056 60.833,314.833 60.833 C 314.648 60.833,314.500 60.722,314.500 60.583 C 314.500 60.446,314.387 60.333,314.250 60.333 C 314.111 60.333,314.000 60.185,314.000 60.000 C 314.000 59.815,313.889 59.667,313.750 59.667 C 313.612 59.667,313.500 59.554,313.500 59.417 C 313.500 59.279,313.359 59.167,313.186 59.167 C 313.012 59.167,312.833 59.018,312.785 58.833 C 312.722 58.591,312.558 58.500,312.182 58.500 C 311.835 58.500,311.667 58.418,311.667 58.250 C 311.667 58.061,311.463 58.000,310.833 58.000 C 310.204 58.000,310.000 57.939,310.000 57.750 C 310.000 57.577,309.826 57.500,309.436 57.500 C 309.012 57.500,308.851 57.417,308.785 57.167 C 308.709 56.876,308.558 56.833,307.599 56.833 C 306.733 56.833,306.500 56.780,306.500 56.583 C 306.500 56.378,306.206 56.333,304.853 56.333 C 303.346 56.333,303.198 56.305,303.118 56.000 C 303.035 55.682,302.891 55.667,300.000 55.667 C 297.109 55.667,296.965 55.682,296.882 56.000 M233.500 72.000 C 233.500 72.307,233.611 72.333,234.917 72.333 C 236.065 72.333,236.333 72.381,236.333 72.583 C 236.333 72.758,236.509 72.833,236.917 72.833 C 237.324 72.833,237.500 72.909,237.500 73.083 C 237.500 73.258,237.676 73.333,238.083 73.333 C 238.556 73.333,238.667 73.397,238.667 73.667 C 238.667 73.923,238.778 74.000,239.149 74.000 C 239.424 74.000,239.672 74.107,239.727 74.250 C 239.783 74.396,240.033 74.500,240.328 74.500 C 240.722 74.500,240.833 74.573,240.833 74.833 C 240.833 75.056,240.944 75.167,241.167 75.167 C 241.352 75.167,241.500 75.278,241.500 75.417 C 241.500 75.554,241.612 75.667,241.750 75.667 C 241.889 75.667,242.000 75.815,242.000 76.000 C 242.000 76.183,242.104 76.333,242.232 76.333 C 242.360 76.333,242.508 76.446,242.560 76.583 C 242.613 76.721,242.771 76.833,242.911 76.833 C 243.052 76.833,243.167 76.946,243.167 77.083 C 243.167 77.221,243.279 77.333,243.417 77.333 C 243.585 77.333,243.667 77.502,243.667 77.849 C 243.667 78.224,243.757 78.388,244.000 78.452 C 244.184 78.500,244.333 78.679,244.333 78.853 C 244.333 79.025,244.446 79.167,244.583 79.167 C 244.752 79.167,244.833 79.335,244.833 79.682 C 244.833 80.058,244.924 80.222,245.167 80.285 C 245.437 80.356,245.500 80.512,245.500 81.108 C 245.500 81.608,245.580 81.875,245.750 81.940 C 245.925 82.007,246.000 82.280,246.000 82.851 C 246.000 83.465,246.062 83.667,246.250 83.667 C 246.460 83.667,246.500 84.037,246.500 86.000 C 246.500 87.963,246.460 88.333,246.250 88.333 C 246.053 88.333,246.000 88.565,246.000 89.417 C 246.000 90.269,245.947 90.500,245.750 90.500 C 245.577 90.500,245.500 90.674,245.500 91.064 C 245.500 91.488,245.417 91.649,245.167 91.715 C 244.927 91.778,244.833 91.942,244.833 92.300 C 244.833 92.589,244.728 92.838,244.583 92.894 C 244.437 92.950,244.333 93.199,244.333 93.495 C 244.333 93.889,244.260 94.000,244.000 94.000 C 243.812 94.000,243.667 94.111,243.667 94.255 C 243.667 94.396,243.554 94.554,243.417 94.606 C 243.279 94.659,243.167 94.807,243.167 94.934 C 243.167 95.062,243.058 95.167,242.924 95.167 C 242.779 95.167,242.638 95.401,242.572 95.750 C 242.477 96.257,242.400 96.333,241.981 96.333 C 241.665 96.333,241.500 96.419,241.500 96.583 C 241.500 96.721,241.380 96.833,241.234 96.833 C 241.088 96.833,240.930 96.983,240.882 97.167 C 240.834 97.350,240.691 97.500,240.564 97.500 C 240.437 97.500,240.333 97.612,240.333 97.750 C 240.333 97.917,240.166 98.000,239.828 98.000 C 239.533 98.000,239.283 98.104,239.227 98.250 C 239.174 98.388,239.020 98.500,238.883 98.500 C 238.747 98.500,238.596 98.650,238.548 98.833 C 238.478 99.103,238.321 99.167,237.725 99.167 C 237.225 99.167,236.959 99.247,236.894 99.417 C 236.826 99.592,236.553 99.667,235.982 99.667 C 235.278 99.667,235.167 99.712,235.167 100.000 C 235.167 100.320,235.056 100.333,232.345 100.333 C 229.669 100.333,229.517 100.316,229.417 100.000 C 229.330 99.726,229.164 99.667,228.489 99.667 C 227.869 99.667,227.667 99.605,227.667 99.417 C 227.667 99.228,227.463 99.167,226.833 99.167 C 226.111 99.167,226.000 99.122,226.000 98.833 C 226.000 98.611,225.889 98.500,225.667 98.500 C 225.481 98.500,225.333 98.389,225.333 98.250 C 225.333 98.083,225.167 98.000,224.833 98.000 C 224.500 98.000,224.333 97.917,224.333 97.750 C 224.333 97.611,224.185 97.500,224.000 97.500 C 223.817 97.500,223.665 97.406,223.664 97.292 C 223.660 97.038,222.941 96.333,222.685 96.333 C 222.583 96.333,222.500 96.246,222.500 96.140 C 222.500 96.034,222.125 95.582,221.667 95.135 C 221.208 94.689,220.833 94.251,220.833 94.162 C 220.833 94.073,220.721 94.000,220.583 94.000 C 220.415 94.000,220.333 93.832,220.333 93.484 C 220.333 93.109,220.243 92.945,220.000 92.882 C 219.763 92.820,219.667 92.654,219.667 92.309 C 219.667 92.031,219.560 91.782,219.417 91.727 C 219.272 91.671,219.167 91.422,219.167 91.133 C 219.167 90.776,219.073 90.611,218.833 90.548 C 218.544 90.473,218.500 90.321,218.500 89.397 C 218.500 88.563,218.446 88.333,218.250 88.333 C 218.042 88.333,218.000 87.999,218.000 86.328 C 218.000 84.699,218.047 84.305,218.250 84.227 C 218.435 84.156,218.500 83.861,218.500 83.085 C 218.500 82.179,218.545 82.027,218.833 81.952 C 219.106 81.880,219.167 81.724,219.167 81.099 C 219.167 80.530,219.231 80.333,219.417 80.333 C 219.591 80.333,219.667 80.157,219.667 79.750 C 219.667 79.278,219.730 79.167,220.000 79.167 C 220.222 79.167,220.333 79.056,220.333 78.833 C 220.333 78.648,220.444 78.500,220.583 78.500 C 220.758 78.500,220.833 78.324,220.833 77.917 C 220.833 77.444,220.897 77.333,221.167 77.333 C 221.352 77.333,221.500 77.222,221.500 77.083 C 221.500 76.946,221.612 76.833,221.750 76.833 C 221.887 76.833,222.000 76.721,222.000 76.583 C 222.000 76.446,222.112 76.333,222.250 76.333 C 222.389 76.333,222.500 76.185,222.500 76.000 C 222.500 75.778,222.611 75.667,222.833 75.667 C 223.019 75.667,223.167 75.556,223.167 75.417 C 223.167 75.279,223.279 75.167,223.417 75.167 C 223.556 75.167,223.667 75.019,223.667 74.833 C 223.667 74.563,223.778 74.500,224.250 74.500 C 224.657 74.500,224.833 74.425,224.833 74.250 C 224.833 74.082,225.002 74.000,225.349 74.000 C 225.724 74.000,225.888 73.909,225.952 73.667 C 226.014 73.430,226.179 73.333,226.525 73.333 C 226.803 73.333,227.051 73.226,227.106 73.083 C 227.166 72.929,227.419 72.833,227.768 72.833 C 228.159 72.833,228.333 72.756,228.333 72.583 C 228.333 72.382,228.594 72.333,229.682 72.333 C 230.891 72.333,231.040 72.299,231.118 72.000 C 231.195 71.707,231.346 71.667,232.353 71.667 C 233.389 71.667,233.500 71.699,233.500 72.000 " stroke="none" fill="#fcfcfc" fill-rule="evenodd"></path><path id="path1" d="M31.715 34.833 C 31.643 35.109,31.488 35.167,30.814 35.167 C 30.202 35.167,30.000 35.229,30.000 35.417 C 30.000 35.585,29.832 35.667,29.484 35.667 C 29.109 35.667,28.945 35.757,28.882 36.000 C 28.834 36.183,28.691 36.333,28.564 36.333 C 28.437 36.333,28.333 36.446,28.333 36.583 C 28.333 36.722,28.185 36.833,28.000 36.833 C 27.778 36.833,27.667 36.944,27.667 37.167 C 27.667 37.352,27.556 37.500,27.417 37.500 C 27.279 37.500,27.167 37.604,27.167 37.731 C 27.167 37.857,27.017 38.000,26.833 38.048 C 26.650 38.096,26.500 38.255,26.500 38.401 C 26.500 38.547,26.387 38.667,26.250 38.667 C 26.061 38.667,26.000 38.870,26.000 39.500 C 26.000 40.130,25.939 40.333,25.750 40.333 C 25.538 40.333,25.500 40.759,25.500 43.167 C 25.500 45.574,25.538 46.000,25.750 46.000 C 25.935 46.000,26.000 46.194,26.000 46.742 C 26.000 47.179,26.091 47.538,26.221 47.617 C 26.342 47.690,26.490 47.881,26.549 48.042 C 26.608 48.202,26.771 48.333,26.911 48.333 C 27.084 48.333,27.167 48.495,27.167 48.833 C 27.167 49.156,27.251 49.333,27.405 49.333 C 27.537 49.333,27.692 49.483,27.750 49.667 C 27.824 49.900,28.002 50.000,28.345 50.000 C 28.668 50.000,28.833 50.085,28.833 50.250 C 28.833 50.387,28.975 50.500,29.147 50.500 C 29.321 50.500,29.500 50.649,29.548 50.833 C 29.620 51.106,29.776 51.167,30.401 51.167 C 30.970 51.167,31.167 51.231,31.167 51.417 C 31.167 51.634,31.944 51.667,37.167 51.667 C 43.056 51.667,43.167 51.673,43.167 52.000 C 43.167 52.270,43.278 52.333,43.750 52.333 C 44.157 52.333,44.333 52.409,44.333 52.583 C 44.333 52.758,44.509 52.833,44.917 52.833 C 45.389 52.833,45.500 52.897,45.500 53.167 C 45.500 53.352,45.611 53.500,45.750 53.500 C 45.887 53.500,46.000 53.612,46.000 53.750 C 46.000 53.889,46.148 54.000,46.333 54.000 C 46.519 54.000,46.667 54.111,46.667 54.250 C 46.667 54.387,46.779 54.500,46.917 54.500 C 47.056 54.500,47.167 54.648,47.167 54.833 C 47.167 55.019,47.278 55.167,47.417 55.167 C 47.585 55.167,47.667 55.335,47.667 55.682 C 47.667 56.058,47.757 56.222,48.000 56.285 C 48.237 56.347,48.333 56.512,48.333 56.858 C 48.333 57.136,48.440 57.385,48.583 57.440 C 48.799 57.523,48.833 58.347,48.833 63.450 C 48.833 69.224,48.841 69.367,49.167 69.452 C 49.443 69.524,49.500 69.679,49.500 70.353 C 49.500 70.965,49.562 71.167,49.750 71.167 C 49.917 71.167,50.000 71.333,50.000 71.667 C 50.000 71.990,50.085 72.167,50.239 72.167 C 50.370 72.167,50.525 72.317,50.583 72.500 C 50.642 72.683,50.797 72.833,50.928 72.833 C 51.059 72.833,51.167 72.946,51.167 73.083 C 51.167 73.221,51.274 73.333,51.405 73.333 C 51.537 73.333,51.692 73.483,51.750 73.667 C 51.824 73.900,52.002 74.000,52.345 74.000 C 52.668 74.000,52.833 74.085,52.833 74.250 C 52.833 74.425,53.009 74.500,53.417 74.500 C 53.889 74.500,54.000 74.563,54.000 74.833 C 54.000 75.156,54.111 75.167,57.417 75.167 C 60.722 75.167,60.833 75.156,60.833 74.833 C 60.833 74.563,60.944 74.500,61.417 74.500 C 61.824 74.500,62.000 74.425,62.000 74.250 C 62.000 74.112,62.112 74.000,62.250 74.000 C 62.389 74.000,62.500 73.852,62.500 73.667 C 62.500 73.397,62.611 73.333,63.083 73.333 C 63.469 73.333,63.667 73.255,63.667 73.103 C 63.667 72.976,63.817 72.833,64.000 72.785 C 64.243 72.722,64.333 72.558,64.333 72.182 C 64.333 71.835,64.415 71.667,64.583 71.667 C 64.721 71.667,64.833 71.592,64.833 71.500 C 64.833 71.408,64.983 71.183,65.167 71.000 C 65.369 70.798,65.500 70.444,65.500 70.101 C 65.500 69.752,65.596 69.499,65.750 69.440 C 66.130 69.294,66.130 40.333,65.750 40.333 C 65.575 40.333,65.500 40.157,65.500 39.750 C 65.500 39.278,65.437 39.167,65.167 39.167 C 64.897 39.167,64.833 39.056,64.833 38.583 C 64.833 38.176,64.758 38.000,64.583 38.000 C 64.446 38.000,64.333 37.887,64.333 37.750 C 64.333 37.611,64.185 37.500,64.000 37.500 C 63.778 37.500,63.667 37.389,63.667 37.167 C 63.667 36.981,63.556 36.833,63.417 36.833 C 63.279 36.833,63.167 36.721,63.167 36.583 C 63.167 36.444,63.019 36.333,62.833 36.333 C 62.611 36.333,62.500 36.222,62.500 36.000 C 62.500 35.741,62.389 35.667,62.000 35.667 C 61.667 35.667,61.500 35.583,61.500 35.417 C 61.500 35.242,61.324 35.167,60.917 35.167 C 60.529 35.167,60.333 35.089,60.333 34.934 C 60.333 34.513,59.910 34.500,45.804 34.500 C 31.942 34.500,31.801 34.503,31.715 34.833 M81.500 76.000 C 81.500 76.326,81.389 76.333,76.661 76.333 C 72.514 76.333,71.809 76.369,71.727 76.583 C 71.673 76.724,71.425 76.833,71.160 76.833 C 70.836 76.833,70.656 76.937,70.583 77.167 C 70.525 77.350,70.370 77.500,70.239 77.500 C 70.107 77.500,70.000 77.612,70.000 77.750 C 70.000 77.909,69.840 78.000,69.561 78.000 C 69.025 78.000,68.333 78.698,68.333 79.239 C 68.333 79.488,68.213 79.659,68.000 79.715 C 67.757 79.778,67.667 79.942,67.667 80.318 C 67.667 80.665,67.585 80.833,67.417 80.833 C 67.242 80.833,67.167 81.009,67.167 81.417 C 67.167 81.801,67.088 82.000,66.938 82.000 C 66.376 82.000,66.275 86.306,66.833 86.452 C 67.115 86.525,67.167 86.679,67.167 87.436 C 67.167 88.123,67.225 88.333,67.417 88.333 C 67.583 88.333,67.667 88.500,67.667 88.833 C 67.667 89.222,67.741 89.333,68.000 89.333 C 68.270 89.333,68.333 89.444,68.333 89.917 C 68.333 90.324,68.409 90.500,68.583 90.500 C 68.721 90.500,68.833 90.604,68.833 90.732 C 68.833 90.987,69.184 91.167,69.680 91.167 C 69.856 91.167,70.000 91.279,70.000 91.417 C 70.000 91.554,70.107 91.667,70.239 91.667 C 70.370 91.667,70.525 91.817,70.583 92.000 C 70.656 92.230,70.836 92.333,71.160 92.333 C 71.425 92.333,71.673 92.443,71.727 92.583 C 71.810 92.799,72.607 92.833,77.495 92.833 C 82.425 92.833,83.167 92.866,83.167 93.083 C 83.167 93.282,83.407 93.333,84.333 93.333 C 85.389 93.333,85.500 93.365,85.500 93.667 C 85.500 93.923,85.611 94.000,85.982 94.000 C 86.257 94.000,86.506 94.107,86.560 94.250 C 86.613 94.388,86.771 94.500,86.911 94.500 C 87.056 94.500,87.167 94.645,87.167 94.833 C 87.167 95.022,87.278 95.167,87.422 95.167 C 87.562 95.167,87.720 95.279,87.773 95.417 C 87.826 95.554,87.973 95.667,88.101 95.667 C 88.229 95.667,88.333 95.782,88.333 95.922 C 88.333 96.062,88.446 96.220,88.583 96.273 C 88.721 96.326,88.833 96.473,88.833 96.601 C 88.833 96.729,88.983 96.833,89.167 96.833 C 89.456 96.833,89.500 96.944,89.500 97.667 C 89.500 98.296,89.561 98.500,89.750 98.500 C 89.967 98.500,90.000 99.241,90.000 104.172 C 90.000 109.060,90.035 109.857,90.250 109.940 C 90.416 110.003,90.501 110.268,90.502 110.726 C 90.505 111.659,90.658 112.167,90.936 112.167 C 91.063 112.167,91.167 112.317,91.167 112.500 C 91.167 112.685,91.278 112.833,91.417 112.833 C 91.585 112.833,91.667 113.002,91.667 113.349 C 91.667 113.724,91.757 113.888,92.000 113.952 C 92.183 114.000,92.333 114.143,92.333 114.269 C 92.333 114.396,92.437 114.500,92.564 114.500 C 92.691 114.500,92.834 114.650,92.882 114.833 C 92.945 115.076,93.109 115.167,93.484 115.167 C 93.832 115.167,94.000 115.248,94.000 115.417 C 94.000 115.556,94.148 115.667,94.333 115.667 C 94.517 115.667,94.667 115.770,94.667 115.897 C 94.667 116.150,95.161 116.328,95.875 116.331 C 96.170 116.333,96.333 116.422,96.333 116.583 C 96.333 116.794,96.722 116.833,98.833 116.833 C 100.944 116.833,101.333 116.794,101.333 116.583 C 101.333 116.409,101.509 116.333,101.917 116.333 C 102.389 116.333,102.500 116.270,102.500 116.000 C 102.500 115.730,102.611 115.667,103.083 115.667 C 103.491 115.667,103.667 115.591,103.667 115.417 C 103.667 115.278,103.815 115.167,104.000 115.167 C 104.222 115.167,104.333 115.056,104.333 114.833 C 104.333 114.648,104.444 114.500,104.583 114.500 C 104.721 114.500,104.833 114.388,104.833 114.250 C 104.833 114.111,104.981 114.000,105.167 114.000 C 105.389 114.000,105.500 113.889,105.500 113.667 C 105.500 113.481,105.611 113.333,105.750 113.333 C 105.888 113.333,106.000 113.221,106.000 113.083 C 106.000 112.946,106.112 112.833,106.250 112.833 C 106.423 112.833,106.500 112.660,106.500 112.269 C 106.500 111.846,106.583 111.684,106.833 111.618 C 107.164 111.532,107.167 111.391,107.167 96.250 C 107.167 81.109,107.164 80.968,106.833 80.882 C 106.596 80.820,106.500 80.654,106.500 80.309 C 106.500 80.031,106.393 79.782,106.250 79.727 C 106.112 79.674,106.000 79.527,106.000 79.399 C 106.000 79.271,105.888 79.167,105.750 79.167 C 105.612 79.167,105.500 79.047,105.500 78.901 C 105.500 78.755,105.350 78.596,105.167 78.548 C 104.983 78.500,104.833 78.357,104.833 78.231 C 104.833 78.104,104.721 78.000,104.583 78.000 C 104.446 78.000,104.333 77.887,104.333 77.750 C 104.333 77.611,104.185 77.500,104.000 77.500 C 103.778 77.500,103.667 77.389,103.667 77.167 C 103.667 76.897,103.556 76.833,103.083 76.833 C 102.676 76.833,102.500 76.758,102.500 76.583 C 102.500 76.387,102.271 76.333,101.436 76.333 C 100.512 76.333,100.361 76.289,100.285 76.000 C 100.199 75.672,100.058 75.667,90.849 75.667 C 81.611 75.667,81.500 75.671,81.500 76.000 " stroke="none" fill="#fc441c" fill-rule="evenodd"></path><path id="path2" d="M82.667 26.250 C 82.667 26.430,82.483 26.500,82.014 26.500 C 81.199 26.500,80.833 26.635,80.833 26.934 C 80.833 27.079,80.652 27.167,80.351 27.167 C 80.076 27.167,79.828 27.274,79.773 27.417 C 79.720 27.554,79.562 27.667,79.422 27.667 C 79.278 27.667,79.167 27.812,79.167 28.000 C 79.167 28.188,79.056 28.333,78.911 28.333 C 78.771 28.333,78.613 28.446,78.560 28.583 C 78.508 28.721,78.360 28.833,78.232 28.833 C 78.104 28.833,78.000 28.983,78.000 29.167 C 78.000 29.352,77.889 29.500,77.750 29.500 C 77.586 29.500,77.500 29.665,77.500 29.981 C 77.500 30.321,77.403 30.487,77.167 30.548 C 76.927 30.611,76.833 30.776,76.833 31.133 C 76.833 31.422,76.728 31.671,76.583 31.727 C 76.375 31.807,76.333 32.283,76.333 34.583 C 76.333 36.883,76.375 37.360,76.583 37.440 C 76.754 37.505,76.833 37.772,76.833 38.283 C 76.833 38.891,76.896 39.048,77.167 39.118 C 77.350 39.166,77.500 39.309,77.500 39.436 C 77.500 39.563,77.612 39.667,77.750 39.667 C 77.918 39.667,78.000 39.835,78.000 40.182 C 78.000 40.558,78.091 40.722,78.333 40.785 C 78.517 40.833,78.667 40.970,78.667 41.090 C 78.667 41.209,78.892 41.356,79.167 41.417 C 79.442 41.477,79.667 41.633,79.667 41.763 C 79.667 41.893,79.817 42.000,80.000 42.000 C 80.185 42.000,80.333 42.111,80.333 42.250 C 80.333 42.423,80.507 42.500,80.897 42.500 C 81.321 42.500,81.483 42.583,81.548 42.833 C 81.633 43.159,81.776 43.167,87.568 43.167 C 92.730 43.167,93.500 43.199,93.500 43.417 C 93.500 43.605,93.702 43.667,94.314 43.667 C 94.988 43.667,95.143 43.724,95.215 44.000 C 95.278 44.243,95.442 44.333,95.818 44.333 C 96.165 44.333,96.333 44.415,96.333 44.583 C 96.333 44.721,96.446 44.833,96.583 44.833 C 96.721 44.833,96.833 44.953,96.833 45.099 C 96.833 45.245,96.983 45.404,97.167 45.452 C 97.350 45.500,97.500 45.643,97.500 45.769 C 97.500 45.896,97.612 46.000,97.750 46.000 C 97.888 46.000,98.000 46.112,98.000 46.250 C 98.000 46.387,98.104 46.500,98.231 46.500 C 98.364 46.500,98.510 46.749,98.572 47.083 C 98.638 47.433,98.779 47.667,98.924 47.667 C 99.090 47.667,99.167 47.851,99.167 48.250 C 99.167 48.657,99.242 48.833,99.417 48.833 C 99.634 48.833,99.667 49.604,99.667 54.766 C 99.667 60.558,99.675 60.700,100.000 60.785 C 100.276 60.857,100.333 61.012,100.333 61.686 C 100.333 62.298,100.395 62.500,100.583 62.500 C 100.752 62.500,100.833 62.668,100.833 63.016 C 100.833 63.391,100.924 63.555,101.167 63.618 C 101.351 63.667,101.500 63.846,101.500 64.019 C 101.500 64.192,101.612 64.333,101.750 64.333 C 101.888 64.333,102.000 64.446,102.000 64.583 C 102.000 64.721,102.110 64.833,102.244 64.833 C 102.378 64.833,102.569 64.983,102.667 65.167 C 102.771 65.362,103.016 65.500,103.256 65.500 C 103.510 65.500,103.667 65.595,103.667 65.750 C 103.667 65.925,103.843 66.000,104.250 66.000 C 104.657 66.000,104.833 66.075,104.833 66.250 C 104.833 66.441,105.044 66.500,105.731 66.500 C 106.488 66.500,106.641 66.552,106.715 66.833 C 106.794 67.136,106.942 67.167,108.333 67.167 C 109.724 67.167,109.873 67.136,109.952 66.833 C 110.024 66.557,110.179 66.500,110.853 66.500 C 111.465 66.500,111.667 66.438,111.667 66.250 C 111.667 66.075,111.843 66.000,112.250 66.000 C 112.657 66.000,112.833 65.925,112.833 65.750 C 112.833 65.582,113.002 65.500,113.349 65.500 C 113.724 65.500,113.888 65.409,113.952 65.167 C 114.000 64.983,114.143 64.833,114.269 64.833 C 114.396 64.833,114.500 64.730,114.500 64.603 C 114.500 64.476,114.650 64.333,114.833 64.285 C 115.017 64.237,115.167 64.078,115.167 63.932 C 115.167 63.786,115.279 63.667,115.417 63.667 C 115.591 63.667,115.667 63.491,115.667 63.083 C 115.667 62.611,115.730 62.500,116.000 62.500 C 116.289 62.500,116.333 62.389,116.333 61.667 C 116.333 61.037,116.394 60.833,116.583 60.833 C 116.804 60.833,116.833 59.111,116.833 46.328 C 116.833 33.588,116.803 31.811,116.583 31.727 C 116.438 31.671,116.333 31.422,116.333 31.133 C 116.333 30.776,116.239 30.611,116.000 30.548 C 115.764 30.487,115.667 30.321,115.667 29.981 C 115.667 29.665,115.581 29.500,115.417 29.500 C 115.278 29.500,115.167 29.352,115.167 29.167 C 115.167 28.944,115.056 28.833,114.833 28.833 C 114.648 28.833,114.500 28.722,114.500 28.583 C 114.500 28.446,114.388 28.333,114.250 28.333 C 114.111 28.333,114.000 28.185,114.000 28.000 C 114.000 27.817,113.896 27.667,113.768 27.667 C 113.640 27.667,113.492 27.554,113.440 27.417 C 113.385 27.274,113.136 27.167,112.858 27.167 C 112.512 27.167,112.347 27.070,112.285 26.833 C 112.212 26.555,112.058 26.500,111.349 26.500 C 110.705 26.500,110.500 26.440,110.500 26.250 C 110.500 26.030,108.843 26.000,96.583 26.000 C 84.324 26.000,82.667 26.030,82.667 26.250 " stroke="none" fill="#7c2c8c" fill-rule="evenodd"></path><path id="path3" d="" stroke="none" fill="#100c8c4" fill-rule="evenodd"></path><path id="path4" d="" stroke="none" fill="#100c8c4" fill-rule="evenodd"></path></g></svg>