<svg width="64" height="64" viewBox="0 0 64 64" fill="none" xmlns="http://www.w3.org/2000/svg">
<path d="M3.99996 58.62L15.9533 46.6667H54C55.7681 46.6667 57.4638 45.9643 58.714 44.714C59.9642 43.4638 60.6666 41.7681 60.6666 40V10C60.6666 8.23189 59.9642 6.5362 58.714 5.28595C57.4638 4.03571 55.7681 3.33333 54 3.33333H10.6666C8.89852 3.33333 7.20282 4.03571 5.95258 5.28595C4.70234 6.5362 3.99996 8.23189 3.99996 10V58.62ZM3.99996 63.3333H0.666626V10C0.666626 7.34784 1.72019 4.8043 3.59556 2.92893C5.47092 1.05357 8.01446 0 10.6666 0H54C56.6521 0 59.1957 1.05357 61.071 2.92893C62.9464 4.8043 64 7.34784 64 10V40C64 42.6522 62.9464 45.1957 61.071 47.0711C59.1957 48.9464 56.6521 50 54 50H17.3333L3.99996 63.3333ZM14 13.3333H50.6666V16.6667H14V13.3333ZM14 23.3333H50.6666V26.6667H14V23.3333ZM14 33.3333H40.6666V36.6667H14V33.3333Z" fill="#373A36"/>
</svg>
