<svg width="67" height="64" viewBox="0 0 67 64" fill="none" xmlns="http://www.w3.org/2000/svg">
<path d="M10.3334 0C7.68121 0 5.13767 1.05357 3.26231 2.92893C1.38694 4.8043 0.333374 7.34784 0.333374 10V53.3333C0.333374 55.9855 1.38694 58.529 3.26231 60.4044C5.13767 62.2798 7.68121 63.3333 10.3334 63.3333H53.6667C56.3189 63.3333 58.8624 62.2798 60.7378 60.4044C62.6131 58.529 63.6667 55.9855 63.6667 53.3333V47.4333C64.7129 46.4976 65.5503 45.3522 66.1246 44.0715C66.6989 42.7908 66.9972 41.4036 67 40V23.3333C66.9972 21.9298 66.6989 20.5425 66.1246 19.2618C65.5503 17.9812 64.7129 16.8357 63.6667 15.9V10C63.6667 7.34784 62.6131 4.8043 60.7378 2.92893C58.8624 1.05357 56.3189 0 53.6667 0H10.3334ZM10.3334 3.33333H53.6667C55.4348 3.33333 57.1305 4.03571 58.3807 5.28595C59.631 6.5362 60.3334 8.23189 60.3334 10V13.9133C59.2633 13.5321 58.136 13.3359 57 13.3333H37C34.3479 13.3333 31.8043 14.3869 29.929 16.2623C28.0536 18.1376 27 20.6812 27 23.3333V40C27 42.6522 28.0536 45.1957 29.929 47.0711C31.8043 48.9464 34.3479 50 37 50H57C58.136 49.9974 59.2633 49.8013 60.3334 49.42V53.3333C60.3334 55.1014 59.631 56.7971 58.3807 58.0474C57.1305 59.2976 55.4348 60 53.6667 60H10.3334C8.56526 60 6.86957 59.2976 5.61933 58.0474C4.36909 56.7971 3.66671 55.1014 3.66671 53.3333V10C3.66671 8.23189 4.36909 6.5362 5.61933 5.28595C6.86957 4.03571 8.56526 3.33333 10.3334 3.33333ZM37 16.6667H57C58.7682 16.6667 60.4638 17.369 61.7141 18.6193C62.9643 19.8695 63.6667 21.5652 63.6667 23.3333V40C63.6667 41.7681 62.9643 43.4638 61.7141 44.714C60.4638 45.9643 58.7682 46.6667 57 46.6667H37C35.2319 46.6667 33.5362 45.9643 32.286 44.714C31.0358 43.4638 30.3334 41.7681 30.3334 40V23.3333C30.3334 21.5652 31.0358 19.8695 32.286 18.6193C33.5362 17.369 35.2319 16.6667 37 16.6667ZM45.3334 23.3333C43.1232 23.3333 41.0036 24.2113 39.4408 25.7741C37.878 27.3369 37 29.4565 37 31.6667C37 33.8768 37.878 35.9964 39.4408 37.5592C41.0036 39.122 43.1232 40 45.3334 40C47.5435 40 49.6631 39.122 51.2259 37.5592C52.7887 35.9964 53.6667 33.8768 53.6667 31.6667C53.6667 29.4565 52.7887 27.3369 51.2259 25.7741C49.6631 24.2113 47.5435 23.3333 45.3334 23.3333ZM45.3334 26.6667C45.99 26.6667 46.6402 26.796 47.2468 27.0473C47.8534 27.2985 48.4046 27.6668 48.8689 28.1311C49.3332 28.5954 49.7015 29.1466 49.9528 29.7533C50.204 30.3599 50.3334 31.0101 50.3334 31.6667C50.3334 32.3233 50.204 32.9735 49.9528 33.5801C49.7015 34.1867 49.3332 34.7379 48.8689 35.2022C48.4046 35.6665 47.8534 36.0348 47.2468 36.2861C46.6402 36.5373 45.99 36.6667 45.3334 36.6667C44.0073 36.6667 42.7355 36.1399 41.7978 35.2022C40.8602 34.2645 40.3334 32.9928 40.3334 31.6667C40.3334 30.3406 40.8602 29.0688 41.7978 28.1311C42.7355 27.1935 44.0073 26.6667 45.3334 26.6667Z" fill="#373A36"/>
</svg>
