<svg width="24" height="16" viewBox="0 0 24 16" fill="none" xmlns="http://www.w3.org/2000/svg">
<path d="M5.72923 15.8333C4.20976 15.8336 2.75242 15.2303 1.67779 14.156C0.603172 13.0818 -0.000700201 11.6247 -0.000976468 10.1052C-0.00125273 8.58573 0.602089 7.12838 1.67632 6.05376C2.75055 4.97914 4.20768 4.37526 5.72715 4.37499C6.31375 2.96953 7.35692 1.8028 8.68822 1.06318C10.0195 0.323552 11.5612 0.0542016 13.0645 0.298617C14.5677 0.543033 15.9446 1.28695 16.973 2.41025C18.0014 3.53355 18.6212 4.97067 18.7324 6.48957L19.2709 6.45832C20.5141 6.45832 21.7064 6.95218 22.5855 7.83126C23.4645 8.71034 23.9584 9.90262 23.9584 11.1458C23.9584 12.389 23.4645 13.5813 22.5855 14.4604C21.7064 15.3395 20.5141 15.8333 19.2709 15.8333H5.72923ZM5.72923 5.41665C4.48603 5.41665 3.29374 5.91052 2.41467 6.78959C1.53559 7.66867 1.04173 8.86095 1.04173 10.1042C1.04173 11.3474 1.53559 12.5396 2.41467 13.4187C3.29374 14.2978 4.48603 14.7917 5.72923 14.7917H19.2709C19.8208 14.7912 20.3635 14.6664 20.8584 14.4265C21.3532 14.1866 21.7874 13.8379 22.1284 13.4064C22.4694 12.975 22.7083 12.472 22.8274 11.9351C22.9464 11.3982 22.9425 10.8414 22.8159 10.3062C22.6892 9.77107 22.4431 9.27151 22.0961 8.84493C21.749 8.41835 21.31 8.07581 20.8118 7.84296C20.3136 7.6101 19.7692 7.49296 19.2193 7.50032C18.6694 7.50767 18.1283 7.63931 17.6365 7.8854L17.7084 6.97915C17.71 5.59021 17.207 4.24797 16.293 3.20216C15.379 2.15636 14.1161 1.47821 12.7395 1.2939C11.3628 1.10959 9.96608 1.43167 8.80914 2.20021C7.6522 2.96874 6.81385 4.13141 6.45006 5.47186L5.72923 5.41665ZM12.5001 5.41665V10.8854L14.8438 8.54165L15.6251 9.23332L11.9792 12.8792L8.3334 9.23332L9.11465 8.54165L11.4584 10.8854V5.41665H12.5001Z" fill="#EF3340"/>
</svg>
