<svg width="20" height="18" viewBox="0 0 20 18" fill="none" xmlns="http://www.w3.org/2000/svg">
<path d="M3.20825 0.166626H16.7499C17.5787 0.166626 18.3736 0.495866 18.9596 1.08192C19.5457 1.66797 19.8749 2.46282 19.8749 3.29163V14.75C19.8749 15.5788 19.5457 16.3736 18.9596 16.9597C18.3736 17.5457 17.5787 17.875 16.7499 17.875H3.20825C2.37945 17.875 1.58459 17.5457 0.998543 16.9597C0.412492 16.3736 0.083252 15.5788 0.083252 14.75V3.29163C0.083252 2.46282 0.412492 1.66797 0.998543 1.08192C1.58459 0.495866 2.37945 0.166626 3.20825 0.166626ZM3.20825 1.20829C2.65572 1.20829 2.12581 1.42779 1.73511 1.81849C1.34441 2.20919 1.12492 2.73909 1.12492 3.29163V14.75C1.12492 15.3025 1.34441 15.8324 1.73511 16.2231C2.12581 16.6138 2.65572 16.8333 3.20825 16.8333H16.7499C17.3025 16.8333 17.8324 16.6138 18.2231 16.2231C18.6138 15.8324 18.8332 15.3025 18.8332 14.75V3.29163C18.8332 2.73909 18.6138 2.20919 18.2231 1.81849C17.8324 1.42779 17.3025 1.20829 16.7499 1.20829H3.20825ZM8.41658 4.33329H15.7083V11.625H14.6666V6.11142L7.22283 13.5552L6.48533 12.8187L13.9301 5.37496H8.41658V4.33329Z" fill="#EF3340"/>
</svg>
