<svg xmlns="http://www.w3.org/2000/svg" width="50" height="50" viewBox="0 0 45 45" fill="none">
<path d="M29.1666 22.9167C27.509 22.9167 25.9193 22.2582 24.7472 21.0861C23.5751 19.914 22.9166 18.3243 22.9166 16.6667V8.33333H14.5833C13.4782 8.33333 12.4184 8.77232 11.637 9.55372C10.8556 10.3351 10.4166 11.3949 10.4166 12.5V39.5833C10.4166 40.6884 10.8556 41.7482 11.637 42.5296C12.4184 43.311 13.4782 43.75 14.5833 43.75H33.3333C34.4383 43.75 35.4981 43.311 36.2795 42.5296C37.0609 41.7482 37.4999 40.6884 37.4999 39.5833V22.9167H29.1666ZM24.9999 16.6667C24.9999 17.7717 25.4389 18.8315 26.2203 19.6129C27.0017 20.3943 28.0615 20.8333 29.1666 20.8333H36.6374L24.9999 9.19583V16.6667ZM14.5833 6.25H24.9999L39.5833 20.8333V39.5833C39.5833 41.2409 38.9248 42.8307 37.7527 44.0028C36.5806 45.1749 34.9909 45.8333 33.3333 45.8333H14.5833C12.9256 45.8333 11.3359 45.1749 10.1638 44.0028C8.99173 42.8307 8.33325 41.2409 8.33325 39.5833V12.5C8.33325 10.8424 8.99173 9.25269 10.1638 8.08058C11.3359 6.90848 12.9256 6.25 14.5833 6.25Z" fill="#44B59D"/>
<path d="M34.2002 26.8665L22.0667 39L16 32.9333L16.8665 32.0667L22.0667 37.267L33.3325 26L34.199 26.8677L34.2002 26.8665Z" fill="#44B59D"/>
</svg>