<svg width="32" height="40" viewBox="0 0 35 42" fill="none" xmlns="http://www.w3.org/2000/svg">
<path d="M21.1666 16.9167C19.509 16.9167 17.9193 16.2582 16.7472 15.0861C15.5751 13.914 14.9166 12.3243 14.9166 10.6667V2.33333H6.58325C5.47818 2.33333 4.41838 2.77232 3.63697 3.55372C2.85557 4.33512 2.41659 5.39493 2.41659 6.5V33.5833C2.41659 34.6884 2.85557 35.7482 3.63697 36.5296C4.41838 37.311 5.47818 37.75 6.58325 37.75H25.3333C26.4383 37.75 27.4981 37.311 28.2795 36.5296C29.0609 35.7482 29.4999 34.6884 29.4999 33.5833V16.9167H21.1666ZM16.9999 10.6667C16.9999 11.7717 17.4389 12.8315 18.2203 13.6129C19.0017 14.3943 20.0615 14.8333 21.1666 14.8333H28.6374L16.9999 3.19583V10.6667ZM6.58325 0.25H16.9999L31.5833 14.8333V33.5833C31.5833 35.2409 30.9248 36.8307 29.7527 38.0028C28.5806 39.1749 26.9909 39.8333 25.3333 39.8333H6.58325C4.92565 39.8333 3.33594 39.1749 2.16383 38.0028C0.991732 36.8307 0.333252 35.2409 0.333252 33.5833V6.5C0.333252 4.8424 0.991732 3.25269 2.16383 2.08058C3.33594 0.908481 4.92565 0.25 6.58325 0.25Z" fill="#EF3340"/>
</svg>
