<svg width="51" height="64" viewBox="0 0 51 64" fill="none" xmlns="http://www.w3.org/2000/svg">
<path d="M33.6667 26.6667C31.0145 26.6667 28.471 25.6131 26.5956 23.7377C24.7203 21.8624 23.6667 19.3188 23.6667 16.6667V3.33333H10.3334C8.56526 3.33333 6.86957 4.03571 5.61933 5.28596C4.36909 6.5362 3.66671 8.23189 3.66671 10V53.3333C3.66671 55.1015 4.36909 56.7971 5.61933 58.0474C6.86957 59.2976 8.56526 60 10.3334 60H40.3334C42.1015 60 43.7972 59.2976 45.0474 58.0474C46.2977 56.7971 47 55.1015 47 53.3333V26.6667H33.6667ZM27 16.6667C27 18.4348 27.7024 20.1305 28.9527 21.3807C30.2029 22.631 31.8986 23.3333 33.6667 23.3333H45.62L27 4.71333V16.6667ZM10.3334 0H27L50.3334 23.3333V53.3333C50.3334 55.9855 49.2798 58.529 47.4044 60.4044C45.5291 62.2798 42.9855 63.3333 40.3334 63.3333H10.3334C7.68121 63.3333 5.13767 62.2798 3.26231 60.4044C1.38694 58.529 0.333374 55.9855 0.333374 53.3333V10C0.333374 7.34784 1.38694 4.8043 3.26231 2.92893C5.13767 1.05357 7.68121 0 10.3334 0Z" fill="#373A36"/>
</svg>
