<svg width="64" height="64" viewBox="0 0 64 64" fill="none" xmlns="http://www.w3.org/2000/svg">
<path d="M10.6666 0H54C56.6521 0 59.1957 1.05357 61.071 2.92893C62.9464 4.8043 64 7.34784 64 10V53.3333C64 55.9855 62.9464 58.529 61.071 60.4044C59.1957 62.2798 56.6521 63.3333 54 63.3333H10.6666C8.01446 63.3333 5.47092 62.2798 3.59556 60.4044C1.72019 58.529 0.666626 55.9855 0.666626 53.3333V10C0.666626 7.34784 1.72019 4.8043 3.59556 2.92893C5.47092 1.05357 8.01446 0 10.6666 0ZM10.6666 3.33333C8.89852 3.33333 7.20282 4.03571 5.95258 5.28595C4.70234 6.5362 3.99996 8.23189 3.99996 10V48.62L18.31 34.31L26.6433 42.6433L43.31 25.9767L60.6666 43.3333V10C60.6666 8.23189 59.9642 6.5362 58.714 5.28595C57.4638 4.03571 55.7681 3.33333 54 3.33333H10.6666ZM26.6433 47.3567L18.31 39.0233L3.99996 53.3333C3.99996 55.1014 4.70234 56.7971 5.95258 58.0474C7.20282 59.2976 8.89852 60 10.6666 60H54C55.7681 60 57.4638 59.2976 58.714 58.0474C59.9642 56.7971 60.6666 55.1014 60.6666 53.3333V48.0467L43.31 30.69L26.6433 47.3567ZM19 10C21.2101 10 23.3297 10.878 24.8925 12.4408C26.4553 14.0036 27.3333 16.1232 27.3333 18.3333C27.3333 20.5435 26.4553 22.6631 24.8925 24.2259C23.3297 25.7887 21.2101 26.6667 19 26.6667C16.7898 26.6667 14.6702 25.7887 13.1074 24.2259C11.5446 22.6631 10.6666 20.5435 10.6666 18.3333C10.6666 16.1232 11.5446 14.0036 13.1074 12.4408C14.6702 10.878 16.7898 10 19 10ZM19 13.3333C17.6739 13.3333 16.4021 13.8601 15.4644 14.7978C14.5267 15.7355 14 17.0073 14 18.3333C14 19.6594 14.5267 20.9312 15.4644 21.8689C16.4021 22.8066 17.6739 23.3333 19 23.3333C20.326 23.3333 21.5978 22.8066 22.5355 21.8689C23.4732 20.9312 24 19.6594 24 18.3333C24 17.0073 23.4732 15.7355 22.5355 14.7978C21.5978 13.8601 20.326 13.3333 19 13.3333Z" fill="#373A36"/>
</svg>
