<svg width="192" height="37" viewBox="0 0 192 37" fill="none" xmlns="http://www.w3.org/2000/svg">
<path d="M75.6471 7.45023C78.4268 7.45023 80.6771 8.2761 82.3539 9.62383C83.1479 10.2325 83.501 10.9718 83.501 11.8848C83.501 13.1021 82.7509 13.9715 81.5596 13.9715C80.7654 13.9715 80.2801 13.5368 79.4859 13.0586C78.2946 12.2325 77.2797 11.8848 75.6912 11.8848C72.3379 11.8848 69.6462 14.4064 69.6462 18.667C69.6462 22.8842 72.3818 25.4057 75.7353 25.4057C77.368 25.4057 78.3829 25.1013 79.6183 24.2319C80.3684 23.7535 80.8536 23.3623 81.6479 23.3623C82.8391 23.3623 83.6334 24.1884 83.6334 25.4057C83.6334 26.3187 83.2362 27.0581 82.4419 27.6665C80.7652 29.0579 78.5151 29.8403 75.6912 29.8403C69.2492 29.8403 64.484 25.3622 64.484 18.667C64.4838 11.9281 69.2049 7.45023 75.6471 7.45023Z" fill="white"/>
<path d="M96.9213 7.45023C99.7012 7.45023 101.951 8.2761 103.628 9.62383C104.422 10.2325 104.775 10.9718 104.775 11.8848C104.775 13.1021 104.025 13.9715 102.834 13.9715C102.04 13.9715 101.554 13.5368 100.76 13.0586C99.5686 12.2325 98.5537 11.8848 96.9652 11.8848C93.6119 11.8848 90.9202 14.4064 90.9202 18.667C90.9202 22.8842 93.6563 25.4057 97.0095 25.4057C98.6422 25.4057 99.6569 25.1013 100.892 24.2319C101.642 23.7535 102.128 23.3623 102.922 23.3623C104.113 23.3623 104.907 24.1884 104.907 25.4057C104.907 26.3187 104.51 27.0581 103.716 27.6665C102.039 29.0579 99.7891 29.8403 96.9652 29.8403C90.5234 29.8403 85.758 25.3622 85.758 18.667C85.758 11.9281 90.4793 7.45023 96.9213 7.45023Z" fill="white"/>
<path d="M108.444 10.189C108.444 8.71079 109.547 7.75446 111.004 7.75446C112.46 7.75446 113.563 8.71079 113.563 10.189V27.1011C113.563 28.5795 112.46 29.6229 111.004 29.6229C109.547 29.6229 108.444 28.5795 108.444 27.1011V10.189Z" fill="white"/>
<path d="M128.572 7.45023C134.97 7.45023 139.823 12.1021 139.823 18.667C139.823 25.2754 134.97 29.8403 128.572 29.8403C122.13 29.8403 117.232 25.2754 117.232 18.667C117.232 12.1019 122.13 7.45023 128.572 7.45023ZM128.572 11.8411C125.042 11.8411 122.439 14.5368 122.439 18.667C122.439 22.7537 125.042 25.4494 128.572 25.4494C132.102 25.4494 134.617 22.7537 134.617 18.667C134.617 14.5366 132.102 11.8411 128.572 11.8411Z" fill="white"/>
<path d="M148.655 11.5369C149.67 9.31962 152.008 7.45023 155.494 7.45023C160.171 7.45023 163.172 10.0152 163.172 15.8411V27.1013C163.172 28.5797 162.024 29.6231 160.568 29.6231C159.156 29.6231 158.009 28.5797 158.009 27.1013V16.5367C158.009 13.4935 156.376 11.9718 153.508 11.9718C150.817 11.9718 148.655 13.6238 148.655 17.3625V27.1011C148.655 28.5795 147.552 29.6228 146.096 29.6228C144.639 29.6228 143.536 28.5795 143.536 27.1011V10.189C143.536 8.71078 144.639 7.75444 146.096 7.75444C147.552 7.75444 148.655 8.71078 148.655 10.189V11.5369H148.655Z" fill="white"/>
<path d="M62.674 25.9276L56.3203 11.363C55.3937 9.18917 54.4231 7.75446 52.3052 7.75446C50.2315 7.75446 49.305 9.18917 48.3784 11.276L41.9364 25.9276C41.098 27.8839 42.1571 29.6229 44.0543 29.6229C45.5104 29.6229 46.172 28.71 46.7458 27.2753L51.7955 14.6352C51.8943 14.4782 52.0158 14.3805 52.2153 14.3805C52.4158 14.3805 52.5406 14.476 52.6406 14.6329L57.7323 27.2755C58.2619 28.6232 58.9679 29.6231 60.5122 29.6231C62.4092 29.6229 63.6005 27.9274 62.674 25.9276Z" fill="white"/>
<path d="M187.464 25.9276L181.11 11.363C180.184 9.18917 179.213 7.75446 177.095 7.75446C175.021 7.75446 174.095 9.18917 173.168 11.276L166.726 25.9276C165.888 27.8839 166.947 29.6229 168.844 29.6229C170.3 29.6229 170.962 28.71 171.536 27.2753L176.586 14.6352C176.684 14.4782 176.806 14.3805 177.005 14.3805C177.206 14.3805 177.331 14.476 177.431 14.6329L182.522 27.2755C183.052 28.6232 183.758 29.6231 185.302 29.6231C187.199 29.6229 188.391 27.9274 187.464 25.9276Z" fill="white"/>
<path d="M15.6538 9.96884C15.6065 8.76131 15.2581 7.59705 14.6175 6.50818C14.0241 5.49944 13.1633 4.52654 12.0542 3.60976C11.9668 3.53707 11.8737 3.46583 11.7829 3.39418C11.778 3.38983 11.7726 3.38589 11.7673 3.38154C11.6933 3.32335 11.6225 3.26412 11.5462 3.20593L11.5513 3.19951L10.9712 2.83296C10.1877 2.4076 9.3041 2.18063 8.3846 2.18063C6.94955 2.18063 5.60004 2.73149 4.58512 3.73132C3.57041 4.73135 3.01135 6.06107 3.01135 7.47508C3.01135 8.88929 3.57041 10.2188 4.58512 11.2188C4.60151 11.235 4.61875 11.2499 4.63535 11.266L4.63472 11.2665C4.64165 11.2727 4.64859 11.2791 4.65574 11.2849C4.73833 11.3584 4.82303 11.4346 4.90689 11.5098C7.13303 13.5005 9.831 16.0297 11.9235 18.6399C11.9268 18.6357 11.9304 18.6314 11.9338 18.6272C12.0872 18.4349 12.2379 18.2425 12.3848 18.0497C13.468 16.6239 14.2906 15.2562 14.8299 13.9839C15.426 12.5784 15.7032 11.2275 15.6538 9.96884Z" fill="url(#paint0_linear)"/>
<path d="M29.8662 14.9015C29.6767 14.7147 29.4753 14.5435 29.2637 14.3886C29.0693 14.2461 28.8656 14.1185 28.6552 14.0042L11.6135 3.23887C11.5939 3.22396 11.5759 3.20843 11.5563 3.19331L11.5525 3.19787C11.3661 3.06347 11.1719 2.94191 10.9714 2.83298L11.5515 3.19953L11.5464 3.20594C11.7215 3.3391 11.8905 3.47371 12.0546 3.60935C13.1635 4.52635 14.0244 5.49925 14.6179 6.50798C15.2583 7.59686 15.6067 8.76111 15.654 9.96865C15.7032 11.2273 15.4262 12.5784 14.8301 13.9839C14.2911 15.2563 13.4684 16.6239 12.385 18.0497C12.2385 18.2425 12.0876 18.4349 11.934 18.627C11.9306 18.6314 11.927 18.6357 11.9237 18.6399C9.78981 21.3074 7.029 23.8819 4.78395 25.8853C4.781 25.888 4.77827 25.8905 4.77512 25.8934C4.73519 25.929 4.69357 25.9663 4.65406 26.0015L4.65679 26.0044C4.63304 26.027 4.60866 26.0485 4.58555 26.0713C3.57063 27.0713 3.01178 28.4008 3.01178 29.815C3.01178 31.2293 3.57063 32.559 4.58555 33.5586C5.60025 34.5586 6.94977 35.1093 8.38482 35.1093C9.27342 35.1093 10.1286 34.8978 10.8924 34.4998C10.9743 34.4572 11.055 34.4126 11.1349 34.3658L11.3964 34.2008C11.4573 34.16 11.5176 34.1186 11.5771 34.0753L11.5828 34.0829C11.6234 34.0521 11.6608 34.0204 11.7007 33.9895L28.6346 23.2975C28.8557 23.1789 29.0689 23.0445 29.2725 22.8947C29.4806 22.7417 29.679 22.5731 29.8658 22.389C30.8807 21.3892 31.4396 20.0595 31.4396 18.6455C31.44 17.2311 30.8812 15.9013 29.8662 14.9015Z" fill="url(#paint1_linear)"/>
<defs>
<linearGradient id="paint0_linear" x1="14.3982" y1="17.2323" x2="6.10591" y2="2.65582" gradientUnits="userSpaceOnUse">
<stop offset="0.1827" stop-color="#BFBFBF"/>
<stop offset="1" stop-color="white"/>
</linearGradient>
<linearGradient id="paint1_linear" x1="3.0118" y1="18.9713" x2="31.44" y2="18.9713" gradientUnits="userSpaceOnUse">
<stop stop-color="#E6E6E6"/>
<stop offset="1" stop-color="white"/>
</linearGradient>
</defs>
</svg>
