<?xml version="1.0" encoding="UTF-8" standalone="no"?>
<svg
   xmlns:dc="http://purl.org/dc/elements/1.1/"
   xmlns:cc="http://creativecommons.org/ns#"
   xmlns:rdf="http://www.w3.org/1999/02/22-rdf-syntax-ns#"
   xmlns:svg="http://www.w3.org/2000/svg"
   xmlns="http://www.w3.org/2000/svg"
   xmlns:sodipodi="http://sodipodi.sourceforge.net/DTD/sodipodi-0.dtd"
   xmlns:inkscape="http://www.inkscape.org/namespaces/inkscape"
   width="192"
   height="47"
   viewBox="0 0 211.2 51.7"
   fill="none"
   version="1.1"
   id="svg42"
   sodipodi:docname="igm-logo-192.svg"
   inkscape:version="1.0.2 (e86c870879, 2021-01-15, custom)">
  <metadata
     id="metadata48">
    <rdf:RDF>
      <cc:Work
         rdf:about="">
        <dc:format>image/svg+xml</dc:format>
        <dc:type
           rdf:resource="http://purl.org/dc/dcmitype/StillImage" />
        <dc:title></dc:title>
      </cc:Work>
    </rdf:RDF>
  </metadata>
  <defs
     id="defs46" />
  <sodipodi:namedview
     pagecolor="#ffffff"
     bordercolor="#666666"
     borderopacity="1"
     objecttolerance="10"
     gridtolerance="10"
     guidetolerance="10"
     inkscape:pageopacity="0"
     inkscape:pageshadow="2"
     inkscape:window-width="1920"
     inkscape:window-height="1227"
     id="namedview44"
     showgrid="false"
     scale-x="1.1"
     inkscape:zoom="5.4132653"
     inkscape:cx="98"
     inkscape:cy="24"
     inkscape:window-x="-8"
     inkscape:window-y="-8"
     inkscape:window-maximized="1"
     inkscape:current-layer="svg42" />
  <path
     d="M 13.67058,13.3342 H 7.306787 v 25.2702 h 6.363793 z"
     fill="#142647"
     id="path2" />
  <path
     d="M 13.67058,2.831958 H 7.306787 V 9.20763 h 6.363793 z"
     fill="#142647"
     id="path4" />
  <path
     d="m 93.3873,32.2287 h -6.3627 v 6.3757 h 6.3627 z"
     fill="#142647"
     id="path6" />
  <path
     d="m 43.3461,13.3342 v 22.8786 c 0,7.969 -5.9425,13.1739 -14.9264,13.1739 -4.4919,0 -8.3759,-1.0798 -11.228,-3.1878 l 1.4026,-5.0184 c 2.8077,1.9236 6.0363,2.7208 9.6387,2.7208 5.2412,0 8.7498,-3.0484 8.7498,-7.7361 v -1.2188 c -1.7785,2.5792 -4.5384,4.1251 -8.3754,4.1251 -6.831,0 -12.07063,-5.2969 -12.07063,-13.2205 0,-7.8285 5.23963,-12.9859 12.07063,-12.9859 3.8834,0 6.6897,1.5939 8.4698,4.2661 l 0.1407,-3.797 z m -6.3638,12.6103 c 0,-4.5947 -2.8083,-7.641 -6.9254,-7.641 -4.164,0 -6.9253,3.0463 -6.9253,7.595 0,4.6402 2.7608,7.687 6.9253,7.687 4.1176,5e-4 6.9254,-3.0463 6.9254,-7.641 z"
     fill="#142647"
     id="path8" />
  <path
     d="m 86.7214,22.7107 v 9.518 H 80.3576 V 23.742 c 0,-3.2819 -2.0595,-5.4385 -5.1953,-5.4385 -3.0872,0 -5.1458,2.1566 -5.1458,5.4385 V 38.6044 H 63.6533 V 23.742 c 0,-3.2819 -2.0586,-5.4385 -5.1943,-5.4385 -3.0868,0 -5.1479,2.1566 -5.1479,5.4385 V 38.6044 H 46.9489 V 13.3343 h 6.1292 l 0.0938,2.9997 c 1.778,-2.2966 4.4455,-3.4694 7.5333,-3.4694 3.3224,0 5.99,1.4069 7.6287,3.798 1.8244,-2.4851 4.7715,-3.798 8.1403,-3.798 6.1291,0 10.2472,3.938 10.2472,9.8461 z"
     fill="#142647"
     id="path10" />
  <path
     d="m 86.7219,43.009 h -39.773 v 6.3777 h 39.773 z"
     fill="#ffa41b"
     id="path12" />
  <path
     d="m 100.6634,22.1749 0.5481,-0.9543 c 0.7694,0.6929 1.695,0.9667 2.6474,0.9667 1.3825,0 2.2293,-0.5611 2.2293,-1.4632 0,-0.9533 -0.938,-1.3718 -2.2818,-1.7639 l -0.5998,-0.1695 c -1.4608,-0.405 -2.6335,-1.0447 -2.6335,-2.5998 0,-1.672 1.3686,-2.7828 3.4287,-2.7828 1.2644,0 2.2947,0.3787 3.1162,1.1108 l -0.6256,0.9667 c -0.6915,-0.6143 -1.4866,-0.9274 -2.4906,-0.9274 -1.2,0 -1.9822,0.574 -1.9822,1.4239 0,0.9275 0.8477,1.2674 1.8383,1.5542 l 0.6266,0.1705 c 1.433,0.4174 3.0505,1.149 3.0505,2.8866 0,1.6466 -1.4479,2.744 -3.5987,2.744 -1.2778,0 -2.4772,-0.3787 -3.2729,-1.1625 z"
     fill="#142647"
     id="path14" />
  <path
     d="m 112.689,18.3728 c 0,-2.9786 1.982,-4.9642 4.942,-4.9642 2.947,0 4.929,1.9856 4.929,4.9642 0,2.9791 -1.982,4.9646 -4.929,4.9646 -2.96,0 -4.942,-1.9855 -4.942,-4.9646 z m 8.436,0 c 0,-2.2863 -1.408,-3.8146 -3.494,-3.8146 -2.099,0 -3.494,1.5283 -3.494,3.8146 0,2.2867 1.395,3.815 3.494,3.815 2.086,0 3.494,-1.5283 3.494,-3.815 z"
     fill="#142647"
     id="path16" />
  <path
     d="m 129.735,14.6884 v 3.2927 h 3.82 v 1.1496 h -3.82 v 4.076 h -1.396 v -9.6684 h 5.751 v 1.1501 z"
     fill="#142647"
     id="path18" />
  <path
     d="m 146.088,14.6884 h -3.025 v 8.5183 h -1.395 v -8.5183 h -3.024 v -1.1501 h 7.444 z"
     fill="#142647"
     id="path20" />
  <path
     d="m 164.712,13.5383 -3.391,9.6684 h -1.304 l -2.529,-7.6818 -2.529,7.6818 h -1.292 l -3.404,-9.6684 h 1.488 l 2.633,7.8006 2.452,-7.8006 h 1.304 l 2.477,7.8006 2.609,-7.8006 z"
     fill="#142647"
     id="path22" />
  <path
     d="m 175.343,20.9597 h -4.799 l -0.952,2.247 h -1.487 l 4.187,-9.6684 h 1.29 l 4.173,9.6684 h -1.474 z m -0.483,-1.1501 -1.917,-4.5591 -1.916,4.5591 z"
     fill="#142647"
     id="path24" />
  <path
     d="m 189.09,23.2067 -2.4,-3.7624 h -0.118 -2.255 v 3.7624 h -1.396 v -9.6684 h 3.795 c 1.982,0 3.298,1.176 3.298,2.9533 0,1.2932 -0.729,2.2728 -1.929,2.7042 l 2.634,4.0109 z m -4.773,-4.9125 h 2.152 c 1.264,0 2.098,-0.7186 2.098,-1.8026 0,-1.0845 -0.807,-1.8032 -2.02,-1.8032 h -2.23 z"
     fill="#142647"
     id="path26" />
  <path
     d="m 202.471,22.0572 v 1.15 h -6.337 v -9.6683 h 6.232 v 1.1496 h -4.837 v 3.0307 h 4.473 v 1.1501 h -4.473 v 3.1879 z"
     fill="#142647"
     id="path28" />
  <path
     d="m 100.6634,37.6677 0.5481,-0.9538 c 0.7694,0.6924 1.695,0.9667 2.6474,0.9667 1.3825,0 2.2293,-0.5621 2.2293,-1.4632 0,-0.9538 -0.938,-1.3723 -2.2818,-1.7639 l -0.5998,-0.1695 c -1.4608,-0.4055 -2.6335,-1.0452 -2.6335,-2.5993 0,-1.6719 1.3686,-2.7843 3.4287,-2.7843 1.2644,0 2.2947,0.3792 3.1162,1.1108 l -0.6256,0.9667 c -0.6915,-0.6143 -1.4866,-0.9279 -2.4906,-0.9279 -1.2,0 -1.9822,0.575 -1.9822,1.4244 0,0.9274 0.8477,1.2674 1.8383,1.5552 l 0.6266,0.1694 c 1.433,0.418 3.0505,1.1496 3.0505,2.8872 0,1.6471 -1.4479,2.745 -3.5987,2.745 -1.2778,0 -2.4772,-0.3792 -3.2729,-1.1635 z"
     fill="#142647"
     id="path30" />
  <path
     d="m 119.522,30.1822 h -3.026 V 38.7 h -1.395 v -8.5178 h -3.025 v -1.15 h 7.446 z"
     fill="#142647"
     id="path32" />
  <path
     d="m 124.741,35.1469 v -6.1147 h 1.382 v 6.062 c 0,1.5417 1.082,2.5864 2.712,2.5864 1.603,0 2.686,-1.0441 2.686,-2.5864 v -6.062 h 1.396 v 6.1147 c 0,2.2211 -1.63,3.6844 -4.082,3.6844 -2.451,0 -4.094,-1.4633 -4.094,-3.6844 z"
     fill="#142647"
     id="path34" />
  <path
     d="m 147.419,33.8785 c 0,2.8881 -1.879,4.8215 -4.707,4.8215 h -3.521 v -9.6684 h 3.521 c 2.829,5e-4 4.707,1.9344 4.707,4.8469 z m -1.435,0 c 0,-2.2212 -1.329,-3.6963 -3.324,-3.6963 h -2.074 v 7.3687 h 2.074 c 1.995,-5e-4 3.324,-1.4766 3.324,-3.6724 z"
     fill="#142647"
     id="path36" />
  <path
     d="m 154.607,29.0322 h -1.395 V 38.7 h 1.395 z"
     fill="#142647"
     id="path38" />
  <path
     d="m 160.385,33.8666 c 0,-2.9791 1.983,-4.9647 4.942,-4.9647 2.947,0 4.929,1.9861 4.929,4.9647 0,2.9781 -1.982,4.9646 -4.929,4.9646 -2.96,0 -4.942,-1.986 -4.942,-4.9646 z m 8.436,0 c 0,-2.2868 -1.408,-3.8156 -3.494,-3.8156 -2.099,0 -3.494,1.5288 -3.494,3.8156 0,2.2857 1.395,3.8145 3.494,3.8145 2.086,-5e-4 3.494,-1.5293 3.494,-3.8145 z"
     fill="#142647"
     id="path40" />
</svg>
